<?xml version="1.0" encoding="utf-8"?>
<!-- Generator: Adobe Illustrator 27.0.0, SVG Export Plug-In . SVG Version: 6.00 Build 0)  -->
<svg version="1.1" id="Layer_1" xmlns="http://www.w3.org/2000/svg" xmlns:xlink="http://www.w3.org/1999/xlink" x="0px" y="0px"
	 viewBox="0 0 418.8 163.9" style="enable-background:new 0 0 418.8 163.9;" xml:space="preserve">
<style type="text/css">
	.st0{fill:#002D72;}
	.st1{fill:#009CDE;}
	.st2{fill:#23356E;}
	.st3{opacity:0.5;fill:#23356E;enable-background:new    ;}
	.st4{opacity:0.1;fill:#23356E;enable-background:new    ;}
	.st5{fill:url(#SVGID_1_);}
	.st6{fill:url(#SVGID_00000078737560951045196250000007664839011124262063_);}
	.st7{fill:url(#SVGID_00000115489072388075179240000000084255217116988851_);}
	.st8{fill:url(#SVGID_00000015316648944527884520000003939813649294230702_);}
</style>
<g id="CMYK">
</g>
<g>
	<g>
		<path class="st0" d="M176.49,131.83h-3.72l-1.28,3.23h-0.71l3.68-9.19h0.41l3.61,9.19h-0.72L176.49,131.83z M173,131.25h3.27
			l-1.25-3.3c-0.1-0.26-0.23-0.62-0.38-1.08c-0.11,0.4-0.24,0.76-0.37,1.09L173,131.25z"/>
		<path class="st0" d="M184.37,135.06v-4.41c0-0.68-0.14-1.18-0.43-1.49c-0.29-0.31-0.73-0.47-1.34-0.47
			c-0.81,0-1.41,0.21-1.79,0.62c-0.38,0.41-0.57,1.08-0.57,2v3.76h-0.62v-6.8h0.53l0.12,0.93h0.04c0.44-0.71,1.23-1.06,2.36-1.06
			c1.54,0,2.32,0.83,2.32,2.49v4.45H184.37z"/>
		<path class="st0" d="M190.67,135.06v-9.15h0.64v9.15H190.67z"/>
		<path class="st0" d="M198.49,135.06v-4.41c0-0.68-0.14-1.18-0.43-1.49c-0.29-0.31-0.73-0.47-1.34-0.47
			c-0.81,0-1.41,0.21-1.79,0.62c-0.38,0.41-0.57,1.08-0.57,2v3.76h-0.62v-6.8h0.53l0.12,0.93h0.04c0.44-0.71,1.23-1.06,2.36-1.06
			c1.54,0,2.32,0.83,2.32,2.49v4.45H198.49z"/>
		<path class="st0" d="M203.8,128.12c0.49,0,0.92,0.09,1.28,0.27c0.36,0.18,0.68,0.49,0.96,0.92h0.04
			c-0.03-0.53-0.04-1.04-0.04-1.55v-2.45h0.61v9.74h-0.41l-0.16-1.04h-0.05c-0.52,0.78-1.26,1.16-2.23,1.16
			c-0.94,0-1.66-0.29-2.15-0.88c-0.5-0.58-0.74-1.44-0.74-2.55c0-1.18,0.25-2.08,0.74-2.7C202.14,128.43,202.86,128.12,203.8,128.12
			z M203.8,128.68c-0.74,0-1.3,0.26-1.67,0.78c-0.37,0.52-0.56,1.28-0.56,2.27c0,1.93,0.75,2.89,2.25,2.89
			c0.77,0,1.33-0.22,1.69-0.67c0.36-0.45,0.54-1.18,0.54-2.21v-0.11c0-1.05-0.18-1.81-0.53-2.27
			C205.16,128.92,204.59,128.68,203.8,128.68z"/>
		<path class="st0" d="M214.56,131.65c0,1.11-0.27,1.98-0.81,2.6c-0.54,0.62-1.28,0.94-2.23,0.94c-0.6,0-1.12-0.14-1.58-0.43
			c-0.45-0.29-0.8-0.7-1.05-1.24c-0.24-0.54-0.36-1.16-0.36-1.87c0-1.11,0.27-1.98,0.81-2.59c0.54-0.62,1.28-0.93,2.22-0.93
			c0.93,0,1.67,0.31,2.2,0.94C214.3,129.69,214.56,130.55,214.56,131.65z M209.19,131.65c0,0.93,0.21,1.66,0.62,2.19
			c0.41,0.52,0.99,0.79,1.74,0.79c0.75,0,1.33-0.26,1.74-0.79c0.41-0.52,0.62-1.25,0.62-2.19c0-0.94-0.21-1.67-0.62-2.18
			c-0.42-0.52-1-0.78-1.75-0.78c-0.75,0-1.33,0.26-1.74,0.77C209.4,129.97,209.19,130.7,209.19,131.65z"/>
		<path class="st0" d="M218.25,134.63c0.39,0,0.73-0.03,1.03-0.1v0.5c-0.3,0.1-0.65,0.15-1.04,0.15c-0.6,0-1.04-0.16-1.33-0.48
			c-0.29-0.32-0.43-0.83-0.43-1.51v-4.39h-1.01v-0.36l1.01-0.28l0.31-1.54h0.32v1.65h2v0.54h-2v4.31c0,0.52,0.09,0.91,0.28,1.16
			C217.57,134.51,217.85,134.63,218.25,134.63z"/>
		<path class="st0" d="M223.42,128.12c0.29,0,0.6,0.03,0.93,0.09l-0.12,0.59c-0.28-0.07-0.58-0.11-0.88-0.11
			c-0.58,0-1.06,0.25-1.43,0.74c-0.37,0.49-0.56,1.11-0.56,1.87v3.76h-0.62v-6.8h0.53l0.06,1.23h0.04c0.28-0.5,0.58-0.85,0.9-1.05
			C222.59,128.22,222.97,128.12,223.42,128.12z"/>
		<path class="st0" d="M231.36,131.65c0,1.11-0.27,1.98-0.81,2.6c-0.54,0.62-1.28,0.94-2.23,0.94c-0.6,0-1.12-0.14-1.58-0.43
			c-0.45-0.29-0.8-0.7-1.05-1.24c-0.24-0.54-0.36-1.16-0.36-1.87c0-1.11,0.27-1.98,0.81-2.59c0.54-0.62,1.28-0.93,2.22-0.93
			c0.93,0,1.67,0.31,2.2,0.94C231.09,129.69,231.36,130.55,231.36,131.65z M225.99,131.65c0,0.93,0.21,1.66,0.62,2.19
			c0.41,0.52,0.99,0.79,1.74,0.79c0.75,0,1.33-0.26,1.74-0.79c0.41-0.52,0.62-1.25,0.62-2.19c0-0.94-0.21-1.67-0.62-2.18
			c-0.42-0.52-1-0.78-1.75-0.78s-1.33,0.26-1.74,0.77C226.19,129.97,225.99,130.7,225.99,131.65z"/>
		<path class="st0" d="M237.99,135.06v-4.41c0-0.68-0.14-1.18-0.43-1.49c-0.29-0.31-0.73-0.47-1.34-0.47
			c-0.81,0-1.41,0.21-1.79,0.62c-0.38,0.41-0.57,1.08-0.57,2v3.76h-0.62v-6.8h0.53l0.12,0.93h0.04c0.44-0.71,1.23-1.06,2.36-1.06
			c1.54,0,2.32,0.83,2.32,2.49v4.45H237.99z"/>
		<path class="st0" d="M240.72,126.36c0-0.4,0.13-0.6,0.39-0.6c0.13,0,0.23,0.05,0.3,0.16c0.07,0.1,0.11,0.25,0.11,0.44
			c0,0.19-0.04,0.34-0.11,0.44c-0.07,0.11-0.17,0.16-0.3,0.16C240.85,126.97,240.72,126.77,240.72,126.36z M241.43,135.06h-0.62
			v-6.8h0.62V135.06z"/>
		<path class="st0" d="M245.38,131.56l-2.37-3.31h0.71l2.03,2.87l2.01-2.87h0.68l-2.33,3.31l2.5,3.5h-0.72l-2.14-3.04l-2.15,3.04
			h-0.68L245.38,131.56z"/>
		<path class="st0" d="M257.98,131.83h-3.72l-1.28,3.23h-0.71l3.68-9.19h0.41l3.61,9.19h-0.72L257.98,131.83z M254.5,131.25h3.27
			l-1.25-3.3c-0.1-0.26-0.23-0.62-0.38-1.08c-0.11,0.4-0.24,0.76-0.37,1.09L254.5,131.25z"/>
		<path class="st0" d="M262.6,135.06l-2.63-6.8h0.64l1.76,4.63c0.23,0.59,0.41,1.11,0.53,1.55h0.04c0.17-0.57,0.35-1.09,0.53-1.56
			l1.76-4.61h0.64l-2.63,6.8H262.6z"/>
		<path class="st0" d="M271.13,135.06l-0.16-1.08h-0.05c-0.34,0.44-0.69,0.75-1.05,0.93c-0.36,0.18-0.79,0.27-1.28,0.27
			c-0.67,0-1.19-0.17-1.56-0.51c-0.37-0.34-0.56-0.82-0.56-1.42c0-0.66,0.28-1.18,0.83-1.55c0.55-0.37,1.35-0.56,2.4-0.58l1.3-0.04
			v-0.45c0-0.65-0.13-1.13-0.39-1.46c-0.26-0.33-0.69-0.49-1.27-0.49c-0.63,0-1.28,0.18-1.96,0.53l-0.23-0.54
			c0.75-0.35,1.49-0.53,2.22-0.53c0.75,0,1.31,0.19,1.67,0.58c0.37,0.39,0.55,0.99,0.55,1.82v4.53H271.13z M268.63,134.62
			c0.73,0,1.3-0.21,1.72-0.62c0.42-0.41,0.63-0.99,0.63-1.73v-0.67l-1.19,0.05c-0.96,0.05-1.64,0.2-2.04,0.45
			c-0.41,0.25-0.61,0.65-0.61,1.18c0,0.43,0.13,0.76,0.39,0.99C267.78,134.5,268.15,134.62,268.63,134.62z"/>
		<path class="st0" d="M278.54,135.06v-4.41c0-0.68-0.14-1.18-0.43-1.49c-0.29-0.31-0.73-0.47-1.34-0.47
			c-0.81,0-1.41,0.21-1.79,0.62c-0.38,0.41-0.57,1.08-0.57,2v3.76h-0.62v-6.8h0.53l0.12,0.93h0.04c0.44-0.71,1.23-1.06,2.36-1.06
			c1.54,0,2.32,0.83,2.32,2.49v4.45H278.54z"/>
		<path class="st0" d="M281.27,126.36c0-0.4,0.13-0.6,0.39-0.6c0.13,0,0.23,0.05,0.3,0.16c0.07,0.1,0.11,0.25,0.11,0.44
			c0,0.19-0.04,0.34-0.11,0.44c-0.07,0.11-0.17,0.16-0.3,0.16C281.4,126.97,281.27,126.77,281.27,126.36z M281.97,135.06h-0.62v-6.8
			h0.62V135.06z"/>
		<path class="st0" d="M291.34,130.44h3.37v4.18c-0.88,0.38-1.88,0.56-2.99,0.56c-1.44,0-2.55-0.41-3.32-1.22
			c-0.77-0.82-1.15-1.97-1.15-3.46c0-0.93,0.19-1.76,0.57-2.48c0.38-0.72,0.93-1.28,1.64-1.67c0.71-0.39,1.53-0.59,2.45-0.59
			c1,0,1.89,0.18,2.69,0.55l-0.26,0.58c-0.79-0.37-1.62-0.55-2.47-0.55c-1.21,0-2.16,0.37-2.87,1.12s-1.06,1.75-1.06,3.01
			c0,1.38,0.34,2.41,1.01,3.11c0.67,0.69,1.66,1.04,2.96,1.04c0.84,0,1.56-0.12,2.15-0.36v-3.22h-2.72V130.44z"/>
		<path class="st0" d="M299.53,128.12c0.29,0,0.6,0.03,0.93,0.09l-0.12,0.59c-0.28-0.07-0.58-0.11-0.88-0.11
			c-0.58,0-1.06,0.25-1.43,0.74c-0.37,0.49-0.56,1.11-0.56,1.87v3.76h-0.62v-6.8h0.53l0.06,1.23h0.04c0.28-0.5,0.58-0.85,0.9-1.05
			C298.7,128.22,299.08,128.12,299.53,128.12z"/>
		<path class="st0" d="M307.47,131.65c0,1.11-0.27,1.98-0.81,2.6c-0.54,0.62-1.28,0.94-2.23,0.94c-0.6,0-1.12-0.14-1.58-0.43
			c-0.46-0.29-0.8-0.7-1.05-1.24c-0.24-0.54-0.36-1.16-0.36-1.87c0-1.11,0.27-1.98,0.81-2.59c0.54-0.62,1.28-0.93,2.22-0.93
			c0.93,0,1.67,0.31,2.2,0.94C307.2,129.69,307.47,130.55,307.47,131.65z M302.1,131.65c0,0.93,0.21,1.66,0.62,2.19
			c0.41,0.52,0.99,0.79,1.74,0.79s1.33-0.26,1.74-0.79c0.41-0.52,0.62-1.25,0.62-2.19c0-0.94-0.21-1.67-0.62-2.18
			c-0.42-0.52-1-0.78-1.75-0.78s-1.33,0.26-1.74,0.77C302.3,129.97,302.1,130.7,302.1,131.65z"/>
		<path class="st0" d="M309.89,128.25v4.41c0,0.68,0.14,1.18,0.43,1.49c0.29,0.31,0.73,0.47,1.34,0.47c0.81,0,1.41-0.2,1.79-0.61
			c0.38-0.41,0.57-1.07,0.57-2v-3.76h0.61v6.8h-0.53l-0.11-0.94h-0.04c-0.44,0.71-1.23,1.06-2.36,1.06c-1.55,0-2.32-0.83-2.32-2.49
			v-4.44H309.89z"/>
		<path class="st0" d="M319.83,135.18c-1.05,0-1.81-0.39-2.29-1.18h-0.04l0.02,0.53c0.02,0.31,0.03,0.65,0.03,1.01v2.59h-0.62v-9.88
			h0.53l0.12,0.97h0.04c0.47-0.73,1.21-1.1,2.24-1.1c0.92,0,1.62,0.3,2.1,0.9c0.48,0.6,0.72,1.48,0.72,2.63
			c0,1.12-0.25,1.99-0.76,2.6C321.39,134.87,320.7,135.18,319.83,135.18z M319.81,134.63c0.7,0,1.24-0.26,1.62-0.78
			c0.38-0.52,0.57-1.24,0.57-2.17c0-2-0.72-3-2.17-3c-0.79,0-1.38,0.22-1.75,0.65c-0.37,0.44-0.56,1.15-0.56,2.13v0.2
			c0,1.06,0.18,1.82,0.54,2.28C318.43,134.4,319.01,134.63,319.81,134.63z"/>
		<path class="st0" d="M331.94,126.35c-1.15,0-2.05,0.37-2.71,1.1c-0.66,0.73-0.99,1.74-0.99,3.02c0,1.31,0.31,2.32,0.93,3.04
			c0.62,0.72,1.51,1.08,2.67,1.08c0.77,0,1.47-0.1,2.12-0.29v0.56c-0.61,0.21-1.36,0.32-2.27,0.32c-1.29,0-2.3-0.41-3.04-1.25
			c-0.74-0.83-1.11-1.99-1.11-3.48c0-0.93,0.18-1.75,0.53-2.46c0.35-0.71,0.86-1.26,1.52-1.64c0.66-0.39,1.43-0.58,2.31-0.58
			c0.89,0,1.69,0.17,2.4,0.5l-0.26,0.58C333.38,126.52,332.67,126.35,331.94,126.35z"/>
		<path class="st0" d="M341.47,131.65c0,1.11-0.27,1.98-0.81,2.6c-0.54,0.62-1.28,0.94-2.23,0.94c-0.6,0-1.12-0.14-1.58-0.43
			c-0.46-0.29-0.8-0.7-1.05-1.24c-0.24-0.54-0.36-1.16-0.36-1.87c0-1.11,0.27-1.98,0.81-2.59c0.54-0.62,1.28-0.93,2.22-0.93
			c0.93,0,1.67,0.31,2.2,0.94C341.2,129.69,341.47,130.55,341.47,131.65z M336.1,131.65c0,0.93,0.21,1.66,0.62,2.19
			c0.41,0.52,0.99,0.79,1.74,0.79s1.33-0.26,1.74-0.79c0.41-0.52,0.62-1.25,0.62-2.19c0-0.94-0.21-1.67-0.62-2.18
			c-0.42-0.52-1-0.78-1.75-0.78c-0.75,0-1.33,0.26-1.74,0.77C336.3,129.97,336.1,130.7,336.1,131.65z"/>
		<path class="st0" d="M351.85,135.06v-4.46c0-0.66-0.13-1.15-0.39-1.45c-0.26-0.3-0.66-0.46-1.19-0.46c-0.7,0-1.21,0.19-1.55,0.58
			c-0.33,0.38-0.5,0.99-0.5,1.81v3.99h-0.63v-4.65c0-1.15-0.53-1.72-1.58-1.72c-0.71,0-1.23,0.21-1.56,0.62
			c-0.33,0.42-0.49,1.08-0.49,1.99v3.76h-0.62v-6.8h0.51l0.13,0.93h0.04c0.19-0.34,0.45-0.6,0.8-0.79c0.35-0.19,0.73-0.28,1.15-0.28
			c1.07,0,1.76,0.4,2.07,1.21h0.03c0.22-0.39,0.52-0.69,0.89-0.9c0.37-0.21,0.8-0.31,1.27-0.31c0.74,0,1.3,0.2,1.67,0.59
			c0.37,0.4,0.56,1.03,0.56,1.89v4.45H351.85z"/>
		<path class="st0" d="M357.58,135.18c-1.05,0-1.81-0.39-2.29-1.18h-0.04l0.02,0.53c0.02,0.31,0.03,0.65,0.03,1.01v2.59h-0.62v-9.88
			h0.53l0.12,0.97h0.04c0.47-0.73,1.21-1.1,2.24-1.1c0.92,0,1.62,0.3,2.1,0.9c0.48,0.6,0.72,1.48,0.72,2.63
			c0,1.12-0.25,1.99-0.76,2.6C359.15,134.87,358.46,135.18,357.58,135.18z M357.57,134.63c0.7,0,1.24-0.26,1.62-0.78
			c0.38-0.52,0.57-1.24,0.57-2.17c0-2-0.72-3-2.17-3c-0.79,0-1.38,0.22-1.75,0.65c-0.37,0.44-0.56,1.15-0.56,2.13v0.2
			c0,1.06,0.18,1.82,0.54,2.28C356.18,134.4,356.76,134.63,357.57,134.63z"/>
		<path class="st0" d="M366.43,135.06l-0.16-1.08h-0.05c-0.34,0.44-0.69,0.75-1.05,0.93c-0.36,0.18-0.79,0.27-1.28,0.27
			c-0.67,0-1.19-0.17-1.56-0.51c-0.37-0.34-0.56-0.82-0.56-1.42c0-0.66,0.28-1.18,0.83-1.55c0.55-0.37,1.35-0.56,2.4-0.58l1.3-0.04
			v-0.45c0-0.65-0.13-1.13-0.39-1.46c-0.26-0.33-0.69-0.49-1.27-0.49c-0.63,0-1.28,0.18-1.96,0.53l-0.23-0.54
			c0.75-0.35,1.49-0.53,2.22-0.53c0.75,0,1.31,0.19,1.67,0.58c0.37,0.39,0.55,0.99,0.55,1.82v4.53H366.43z M363.93,134.62
			c0.73,0,1.3-0.21,1.72-0.62c0.42-0.41,0.63-0.99,0.63-1.73v-0.67l-1.19,0.05c-0.96,0.05-1.64,0.2-2.04,0.45
			c-0.41,0.25-0.61,0.65-0.61,1.18c0,0.43,0.13,0.76,0.39,0.99C363.08,134.5,363.45,134.62,363.93,134.62z"/>
		<path class="st0" d="M373.84,135.06v-4.41c0-0.68-0.14-1.18-0.43-1.49c-0.29-0.31-0.73-0.47-1.34-0.47
			c-0.81,0-1.41,0.21-1.79,0.62c-0.38,0.41-0.57,1.08-0.57,2v3.76h-0.62v-6.8h0.53l0.12,0.93h0.04c0.44-0.71,1.23-1.06,2.36-1.06
			c1.54,0,2.32,0.83,2.32,2.49v4.45H373.84z"/>
		<path class="st0" d="M375.52,128.25h0.64l1.44,3.82c0.44,1.17,0.72,1.96,0.83,2.37h0.04c0.18-0.54,0.46-1.34,0.86-2.41l1.44-3.78
			h0.64l-3.05,7.91c-0.25,0.64-0.45,1.08-0.62,1.3c-0.17,0.23-0.36,0.39-0.59,0.51c-0.22,0.11-0.49,0.17-0.81,0.17
			c-0.24,0-0.5-0.04-0.8-0.13v-0.54c0.24,0.07,0.5,0.1,0.78,0.1c0.21,0,0.4-0.05,0.56-0.15s0.31-0.26,0.44-0.47
			c0.13-0.21,0.28-0.54,0.46-1c0.17-0.46,0.28-0.75,0.33-0.89L375.52,128.25z"/>
	</g>
	<g>
		<g>
			<g>
				<path class="st1" d="M53.91,26.19c-1.13-0.56-2.53-0.56-3.75,0L37.4,32.84v12.19c0,1.5,0.84,2.91,2.16,3.56l12.47,6.47
					l12.47-6.47c1.31-0.66,2.16-2.06,2.16-3.56V32.84L53.91,26.19z"/>
				<path class="st2" d="M52.03,54.98l-12.47-6.47c-1.31-0.66-2.16-2.06-2.16-3.56V32.75l14.63,7.6V54.98z"/>
				<path class="st3" d="M52.03,54.98l12.47-6.47c1.31-0.66,2.16-2.06,2.16-3.56V32.75l-14.63,7.6"/>
				<path class="st4" d="M66.66,32.84l-14.63,7.6l-14.63-7.6l12.76-6.66c1.13-0.56,2.53-0.56,3.75,0L66.66,32.84z"/>
				<g>
					<path class="st1" d="M52.03,76.93l-12.47-6.47c-1.31-0.66-2.16-2.06-2.16-3.56v-8.82c0-1.5,1.59-2.44,2.91-1.78l11.63,6.1
						v14.54H52.03z"/>
					
						<linearGradient id="SVGID_1_" gradientUnits="userSpaceOnUse" x1="42.0449" y1="92.14" x2="48.6702" y2="103.6155" gradientTransform="matrix(1 0 0 -1 0 164)">
						<stop  offset="0" style="stop-color:#23356E;stop-opacity:0.8"/>
						<stop  offset="1" style="stop-color:#23356E"/>
					</linearGradient>
					<path class="st5" d="M52.03,76.93l-12.47-6.47c-1.31-0.66-2.16-2.06-2.16-3.56v-8.82c0-1.5,1.59-2.44,2.91-1.78l11.63,6.1
						v14.54H52.03z"/>
				</g>
				<g>
					<path class="st1" d="M52.03,91.56l-11.63-6.1c-1.31-0.66-2.91,0.28-2.91,1.78v8.82c0,1.5,0.84,2.91,2.16,3.56l12.47,6.47V91.56
						H52.03z"/>
					
						<linearGradient id="SVGID_00000121978941196174239990000000005191322810721212_" gradientUnits="userSpaceOnUse" x1="42.1002" y1="62.903" x2="48.7255" y2="74.3785" gradientTransform="matrix(1 0 0 -1 0 164)">
						<stop  offset="0" style="stop-color:#23356E;stop-opacity:0.5"/>
						<stop  offset="1" style="stop-color:#23356E;stop-opacity:0.7"/>
					</linearGradient>
					<path style="fill:url(#SVGID_00000121978941196174239990000000005191322810721212_);" d="M52.03,91.56l-11.63-6.1
						c-1.31-0.66-2.91,0.28-2.91,1.78v8.82c0,1.5,0.84,2.91,2.16,3.56l12.47,6.47V91.56H52.03z"/>
				</g>
				<g>
					<path class="st1" d="M52.03,91.56l12.47-6.47c1.31-0.66,2.16-2.06,2.16-3.56v-8.82c0-1.5-1.59-2.44-2.91-1.78l-11.63,6.1"/>
					
						<linearGradient id="SVGID_00000118381451798662199300000000865947516638328507_" gradientUnits="userSpaceOnUse" x1="62.0046" y1="77.5333" x2="55.3792" y2="89.0088" gradientTransform="matrix(1 0 0 -1 0 164)">
						<stop  offset="0" style="stop-color:#23356E;stop-opacity:0.3"/>
						<stop  offset="1" style="stop-color:#23356E;stop-opacity:0.5"/>
					</linearGradient>
					<path style="fill:url(#SVGID_00000118381451798662199300000000865947516638328507_);" d="M52.03,91.56l12.47-6.47
						c1.31-0.66,2.16-2.06,2.16-3.56v-8.82c0-1.5-1.59-2.44-2.91-1.78l-11.63,6.1"/>
				</g>
				<g>
					<path class="st1" d="M52.03,120.73l12.47-6.47c1.31-0.66,2.16-2.06,2.16-3.56v-8.82c0-1.5-1.59-2.44-2.91-1.78l-11.63,6.1"/>
					
						<linearGradient id="SVGID_00000097471243160140767050000014555068646620845456_" gradientUnits="userSpaceOnUse" x1="62.0194" y1="48.3374" x2="55.394" y2="59.8128" gradientTransform="matrix(1 0 0 -1 0 164)">
						<stop  offset="0" style="stop-color:#23356E;stop-opacity:0"/>
						<stop  offset="1" style="stop-color:#23356E;stop-opacity:0.2"/>
					</linearGradient>
					<path style="fill:url(#SVGID_00000097471243160140767050000014555068646620845456_);" d="M52.03,120.73l12.47-6.47
						c1.31-0.66,2.16-2.06,2.16-3.56v-8.82c0-1.5-1.59-2.44-2.91-1.78l-11.63,6.1"/>
				</g>
			</g>
		</g>
		<g>
			<path class="st1" d="M163.9,82.12c-0.19-0.39-0.39-0.77-0.58-1.35l-2.7-5.98l-16.79-37.24c-1.54-3.28-3.67-5.98-6.17-7.53
				c-2.51-1.54-5.79-2.51-9.65-2.51l0,0l0,0c-3.86,0-7.14,0.77-9.65,2.51s-4.63,4.25-6.17,7.53L100.8,62.82l-5.4,11.96l-2.7,5.98
				c-0.19,0.39-0.39,0.77-0.58,1.35c0,0.39-0.19,0.77-0.39,1.16h11.77c0.39,0,0.58,0,0.96,0c0.19,0,0.19,0,0.39,0
				c0.19,0,0.39-0.19,0.77-0.19c0,0,0.19,0,0.39-0.19c0.19,0,0.39-0.19,0.58-0.19h0.19c0.19-0.19,0.58-0.39,0.77-0.39l0,0
				c0.19-0.19,0.39-0.39,0.77-0.58c0,0,0,0,0.19-0.19c0.19-0.19,0.39-0.39,0.58-0.58c0,0,0,0,0.19-0.19c0,0,0,0,0.19-0.19l0,0
				c0.39-0.39,0.58-0.77,0.77-1.35l0.19-0.58l1.74-3.86l5.4-11.96l8.3-19.49c0.19-0.58,0.58-1.16,0.96-1.35s0.77-0.39,1.35-0.39
				c0.58,0,0.96,0.19,1.35,0.39c0.39,0.19,0.77,0.77,1.16,1.35l8.3,19.49h-3.86h-0.19h-13.12l-0.58,1.35l-4.63,10.61h11.38h12.54
				h4.05l1.74,3.86l0.19,0.58c0.19,0.39,0.58,0.96,0.77,1.35l0,0c0,0,0,0.19,0.19,0.19v0.19c0.19,0.19,0.39,0.39,0.58,0.58
				c0,0,0.19,0,0.19,0.19c0.19,0.19,0.39,0.39,0.77,0.58l0,0c0.19,0.19,0.58,0.39,0.77,0.39h0.19c0.19,0,0.39,0.19,0.77,0.19
				c0,0,0.19,0,0.39,0.19c0.19,0,0.39,0,0.58,0.19c0,0,0.19,0,0.39,0c0.39,0,0.58,0,0.96,0h11.77
				C164.29,82.89,164.09,82.5,163.9,82.12z"/>
			<path class="st1" d="M167.57,30.02L167.57,30.02c-0.39-0.19-0.58-0.39-0.77-0.39c0,0-0.19,0-0.19-0.19
				c-0.19,0-0.39-0.19-0.58-0.19c0,0-0.19,0-0.39,0s-0.39,0-0.58-0.19c-0.19,0-0.19,0-0.39,0c-0.39,0-0.58,0-0.96,0h-11.77
				c0.19,0.39,0.19,0.77,0.39,1.16c0.19,0.39,0.39,0.77,0.58,1.16l19.49,43.42c1.54,3.28,3.67,5.98,6.17,7.53
				c2.51,1.74,5.79,2.51,9.65,2.51l0,0l0,0c3.86,0,7.14-0.77,9.65-2.51s4.63-4.25,6.17-7.53l19.49-43.42
				c0.19-0.39,0.39-0.77,0.39-1.16c0.19-0.39,0.39-0.77,0.39-1.16h-11.77c-0.39,0-0.58,0-0.96,0h-0.19c-0.19,0-0.39,0-0.77,0.19
				c0,0-0.19,0-0.39,0c-0.19,0-0.39,0.19-0.58,0.19c0,0-0.19,0-0.19,0.19c-0.39,0-0.58,0.19-0.77,0.39l0,0
				c-0.19,0.19-0.39,0.39-0.77,0.58h-0.19c-0.19,0.19-0.39,0.39-0.58,0.58c0,0,0,0.19-0.19,0.19c0,0,0,0.19-0.19,0.19l0,0
				c-0.39,0.39-0.58,0.96-0.77,1.35l-0.19,0.58l-1.74,3.86l-5.4,11.96l-8.3,19.49c-0.19,0.58-0.58,1.16-0.96,1.35
				c-0.39,0.19-0.77,0.39-1.35,0.39c-0.58,0-0.96,0-1.35-0.39c-0.39-0.19-0.77-0.77-1.16-1.35l-8.3-19.49l-5.4-11.96l-1.54-3.86
				l-0.19-0.58c-0.19-0.39-0.58-0.96-0.77-1.35l0,0c0,0,0,0-0.19-0.19c0,0,0,0-0.19-0.19c-0.19-0.19-0.39-0.39-0.39-0.58h-0.19
				C168.14,30.21,167.95,30.02,167.57,30.02z"/>
			<path class="st1" d="M373.65,28.86h-7.33v7.33v39.94v7.33h7.33c4.05,0,7.33-3.28,7.33-7.33V36.19
				C380.98,31.95,377.7,28.86,373.65,28.86z"/>
			<path class="st1" d="M351.07,28.86c-4.05,0-7.33,3.28-7.33,7.33v27.98c0,0.96-0.39,1.54-1.16,1.54c-0.19,0-0.39,0-0.77-0.19
				c-0.19,0-0.39-0.19-0.58-0.58L314.6,32.91c-1.74-1.93-3.47-3.28-5.21-4.25c-1.74-0.77-4.05-1.35-6.56-1.35
				c-1.74,0-3.47,0.19-5.02,0.77c-1.54,0.39-2.89,1.16-4.05,2.12s-2.12,2.32-2.7,4.05c-0.58,1.54-0.77,3.47-0.77,5.98v33.58v4.25
				v5.21h6.95c4.05,0,7.33-3.28,7.33-7.33V46.42c0-0.39,0-0.77,0.39-1.16c0.19-0.19,0.58-0.39,0.96-0.39c0.39,0,0.77,0.19,1.35,0.77
				l29.91,34.54c1.35,1.54,2.89,2.51,4.63,3.28c1.74,0.58,3.86,0.96,5.98,0.96c1.35,0,2.7-0.19,3.86-0.58
				c1.16-0.39,2.32-1.16,3.28-2.12c0.96-0.96,1.74-2.12,2.32-3.67c0.58-1.54,0.77-3.28,0.77-5.4V38.51v-4.82v-5.02h-6.95V28.86z"/>
			<path class="st1" d="M284.31,82.12c-0.19-0.39-0.39-0.77-0.58-1.35l-2.7-5.98l-16.79-37.24c-1.54-3.28-3.67-5.98-6.17-7.53
				c-2.51-1.54-5.79-2.51-9.65-2.51l0,0l0,0c-3.86,0-7.14,0.77-9.65,2.51s-4.63,4.25-6.17,7.53l-11.38,25.28l-5.4,11.96l-2.7,5.98
				c-0.19,0.39-0.39,0.77-0.58,1.35c0,0.39-0.19,0.77-0.39,1.16h11.77c0.39,0,0.58,0,0.96,0c0.19,0,0.19,0,0.39,0
				c0.19,0,0.39-0.19,0.77-0.19c0,0,0.19,0,0.39-0.19c0.19,0,0.39-0.19,0.58-0.19h0.19c0.19-0.19,0.58-0.39,0.77-0.39l0,0
				c0.19-0.19,0.39-0.39,0.77-0.58c0,0,0,0,0.19-0.19c0.19-0.19,0.39-0.39,0.58-0.58c0,0,0,0,0.19-0.19c0,0,0,0,0.19-0.19l0,0
				c0.39-0.39,0.58-0.77,0.77-1.35l0.19-0.58l1.74-3.86l5.4-11.96l8.3-19.49c0.19-0.58,0.58-1.16,0.96-1.35
				c0.39-0.19,0.77-0.39,1.35-0.39c0.58,0,0.96,0.19,1.35,0.39c0.39,0.19,0.77,0.77,1.16,1.35l8.3,19.49h-3.86h-0.77h-13.12
				l-0.58,1.35l-4.63,10.61h11.38h12.54h4.05l1.74,3.86l0.19,0.58c0.19,0.39,0.58,0.96,0.77,1.35l0,0c0,0,0,0.19,0.19,0.19v0.19
				c0.19,0.19,0.39,0.39,0.58,0.58c0,0,0.19,0,0.19,0.19c0.19,0.19,0.39,0.39,0.77,0.58l0,0c0.19,0.19,0.58,0.39,0.77,0.39h0.19
				c0.19,0,0.39,0.19,0.77,0.19c0,0,0.19,0,0.39,0.19c0.19,0,0.39,0,0.58,0.19c0,0,0.19,0,0.39,0c0.39,0,0.58,0,0.96,0h11.77
				C284.5,82.89,284.5,82.5,284.31,82.12z"/>
		</g>
		<g>
			<g>
				<path class="st0" d="M96.03,115.43h-3.82V99.66h3.82v6.12h6.82v-6.12h3.82v15.77h-3.82v-6.44h-6.82V115.43z"/>
				<path class="st0" d="M122.48,115.43h-12.02V99.66h11.9v3.22h-8.08v2.92h7.16v3.2h-7.16v3.22h8.19V115.43z"/>
				<path class="st0" d="M129.61,112.53l-1.07,2.89h-4.09l6.22-15.77h4.53l6.23,15.77h-4.09l-1.07-2.89H129.61z M135.19,109.56
					l-2.24-6.08l-2.25,6.08H135.19z"/>
				<path class="st0" d="M155.84,115.43h-11.82V99.66h3.82v12.56h8V115.43z"/>
				<path class="st0" d="M159.54,102.95h-4.67v-3.29h13.13v3.29h-4.65v12.48h-3.81V102.95z"/>
				<path class="st0" d="M174.55,115.43h-3.82V99.66h3.82v6.12h6.82v-6.12h3.82v15.77h-3.82v-6.44h-6.82V115.43z"/>
				<path class="st0" d="M197.51,99.43c1.68,0,3.4,0.36,4.97,1.07l-0.24,3.32c-1.17-0.58-2.68-0.92-4.17-0.92
					c-2.95,0-5.79,1.29-5.79,4.61c0,2.95,2.29,4.79,5.37,4.79c1.68,0,3.25-0.37,4.6-1.22l0.52,3.24c-1.8,0.89-3.66,1.33-5.71,1.33
					c-4.74,0-8.7-3.16-8.7-8.1C188.36,102.16,192.8,99.43,197.51,99.43z"/>
				<path class="st0" d="M209.69,112.53l-1.07,2.89h-4.09l6.22-15.77h4.53l6.23,15.77h-4.09l-1.07-2.89H209.69z M215.27,109.56
					l-2.24-6.08l-2.25,6.08H215.27z"/>
				<path class="st0" d="M227.93,115.43h-3.82V99.66h7.49c3.4,0,6,2.31,6,5.64c0,2.04-1.15,3.88-2.82,4.86l4.04,5.25h-4.59
					l-3.36-4.46h-2.95V115.43z M227.93,102.88v4.86h3.4c1.45,0,2.36-1.08,2.36-2.44c0-1.46-0.95-2.43-2.36-2.43H227.93z"/>
				<path class="st0" d="M253.69,115.43h-12.02V99.66h11.9v3.22h-8.08v2.92h7.16v3.2h-7.16v3.22h8.19V115.43z"/>
				<path class="st0" d="M274.72,100.53l-0.31,3.26c-0.57-0.37-2.95-1.07-4.83-1.07c-1.35,0-2.44,0.35-2.44,1.42
					c0,0.97,0.93,1.22,1.83,1.47l2.25,0.65c2.9,0.84,4.34,2.03,4.34,4.52c0,2.89-2.44,4.88-6.28,4.88c-2.32,0-4.92-0.65-5.96-1.23
					l0.3-3.36c0.4,0.43,3.22,1.24,5.39,1.24c1.43,0,2.62-0.35,2.62-1.4c0-0.73-0.5-1.1-1.65-1.4l-2.46-0.63
					c-2.1-0.68-4.31-1.72-4.31-4.55c0-2.94,2.46-4.9,6.19-4.9C271.7,99.43,273.45,99.9,274.72,100.53z"/>
				<path class="st0" d="M282.08,102.95h-4.67v-3.29h13.13v3.29h-4.65v12.48h-3.81V102.95z"/>
				<path class="st0" d="M295.52,112.53l-1.07,2.89h-4.09l6.22-15.77h4.53l6.23,15.77h-4.09l-1.07-2.89H295.52z M301.11,109.56
					l-2.24-6.08l-2.25,6.08H301.11z"/>
				<path class="st0" d="M313.76,115.43h-3.82V99.66h11.47v3.22h-7.65v3.01h6v3.22h-6V115.43z"/>
				<path class="st0" d="M328.11,115.43h-3.82V99.66h11.47v3.22h-7.65v3.01h6v3.22h-6V115.43z"/>
				<path class="st0" d="M342.47,115.43h-3.82V99.66h3.82V115.43z"/>
				<path class="st0" d="M350.09,115.43h-3.82V99.66h3.25l8.07,9.61v-9.61h3.82v15.77h-3.31l-8.01-9.52V115.43z"/>
				<path class="st0" d="M376.18,109.47h-3.67v-3.1H380v7.69c-1.82,0.96-4.21,1.59-6.27,1.59c-1.84,0-3.45-0.34-4.84-1.03
					c-2.78-1.39-4.31-3.95-4.31-7.09c0-5.43,4.52-8.09,9.36-8.09c1.79,0,3.62,0.36,5.29,1.08l-0.26,3.3
					c-1.39-0.62-3.09-0.99-4.7-0.99c-3.03,0-5.78,1.3-5.78,4.7c0,2.95,2.16,4.74,5.05,4.74c0.73,0,1.95-0.12,2.64-0.38V109.47z"/>
			</g>
		</g>
	</g>
</g>
</svg>
