<?xml version="1.0" encoding="UTF-8"?>
<!DOCTYPE svg PUBLIC "-//W3C//DTD SVG 1.1//EN" "http://www.w3.org/Graphics/SVG/1.1/DTD/svg11.dtd">
<!-- Creator: CorelDRAW X8 -->
<svg xmlns="http://www.w3.org/2000/svg" xml:space="preserve" width="1950px" height="771px" version="1.1" style="shape-rendering:geometricPrecision; text-rendering:geometricPrecision; image-rendering:optimizeQuality; fill-rule:evenodd; clip-rule:evenodd"
viewBox="0 0 1950 771"
 xmlns:xlink="http://www.w3.org/1999/xlink">
 <defs>
  <style type="text/css">
   <![CDATA[
    .fil0 {fill:#A02B2E;fill-rule:nonzero}
   ]]>
  </style>
 </defs>
 <g id="Logo">
  <metadata id="CorelCorpID_0Corel-Layer"/>
  <path class="fil0" d="M969 640l0 -511 170 0 0 22c0,0 130,-53 217,16 0,0 82,-66 201,-19 47,19 43,56 43,53l0 439 -170 0 0 -407c0,0 3,-18 -30,-18 -25,1 -29,19 -29,19l1 406 -173 0 0 -406c0,0 -3,-23 -28,-23 -29,0 -29,21 -29,21l0 408 -173 0z"/>
  <path class="fil0" d="M965 98l0 -76c0,0 -238,-33 -281,-21 0,0 -72,6 -69,110l0 547c-3,104 69,110 69,110 43,12 281,-21 281,-21l0 -77c-122,11 -127,-13 -134,-21 -6,-8 0,-507 0,-518 0,-11 12,-44 134,-33z"/>
  <path class="fil0" d="M272 591c-43,-2 -41,-27 -41,-27l0 -83c0,-35 3,-37 15,-46 18,-12 65,-20 65,-20l0 152c0,4 -6,24 -39,24zm173 -479c-111,-33 -298,-8 -298,-8 -137,17 -147,91 -147,91l0 130 220 0 0 -123c0,-36 91,-35 91,1 0,11 1,84 -1,94 -1,9 -23,16 -32,21 -8,3 -155,45 -155,45 -97,29 -122,85 -122,85l0 164c0,0 6,75 229,61 94,-6 109,-29 109,-29l0 30 203 0 0 -466c0,0 8,-64 -97,-96z"/>
  <path class="fil0" d="M1600 98l0 -76c0,0 237,-33 281,-21 0,0 69,6 69,106 0,1 0,3 0,4l0 547c0,1 0,3 0,5 0,99 -69,105 -69,105 -44,12 -281,-21 -281,-21l0 -77c122,11 127,-13 134,-21 6,-8 0,-507 0,-518 0,-11 -12,-44 -134,-33z"/>
 </g>
</svg>
