<?xml version="1.0" encoding="utf-8"?>
<!-- Generator: Adobe Illustrator 27.7.0, SVG Export Plug-In . SVG Version: 6.00 Build 0)  -->
<svg version="1.1" id="Layer_1" xmlns="http://www.w3.org/2000/svg" xmlns:xlink="http://www.w3.org/1999/xlink" x="0px" y="0px"
	 width="418.8px" height="163.9px" viewBox="0 0 418.8 163.9" style="enable-background:new 0 0 418.8 163.9;" xml:space="preserve"
	>
<style type="text/css">
	.st0{fill:#009ADA;}
	.st1{fill:#043673;}
	.st2{opacity:0.5;fill:#043673;enable-background:new    ;}
	.st3{opacity:0.1;fill:#043673;enable-background:new    ;}
	.st4{fill:url(#SVGID_1_);}
	.st5{fill:url(#SVGID_00000180334250046392514640000003966137605584711306_);}
	.st6{fill:url(#SVGID_00000005241280750370739300000002476904361820647310_);}
	.st7{fill:url(#SVGID_00000047031895623531775940000013671514978606307511_);}
</style>
<g id="CMYK">
</g>
<g>
	<g>
		<g>
			<path class="st0" d="M53.9,26.1c-1.2-0.6-2.6-0.6-3.7,0l-12.7,6.6v12.2c0,1.5,0.8,2.9,2.2,3.6L52,54.9l12.4-6.5
				c1.3-0.7,2.2-2.1,2.2-3.6V32.7L53.9,26.1z"/>
			<path class="st1" d="M52,54.9l-12.4-6.5c-1.3-0.7-2.2-2.1-2.2-3.6V32.7L52,40.3V54.9L52,54.9z"/>
			<path class="st2" d="M52,54.9l12.4-6.5c1.3-0.7,2.2-2.1,2.2-3.6V32.7L52,40.3"/>
			<path class="st3" d="M66.6,32.7L52,40.3l-14.6-7.6l12.7-6.6c1.2-0.6,2.6-0.6,3.7,0L66.6,32.7z"/>
			<g>
				<path class="st0" d="M52,76.8l-12.4-6.5c-1.3-0.7-2.2-2.1-2.2-3.6v-8.8c0-1.5,1.6-2.5,2.9-1.8L52,62.2V76.8z"/>
				
					<linearGradient id="SVGID_1_" gradientUnits="userSpaceOnUse" x1="42.0289" y1="-533.7044" x2="48.6476" y2="-522.2404" gradientTransform="matrix(1 0 0 -1 0 -462)">
					<stop  offset="0" style="stop-color:#23356E;stop-opacity:0.8"/>
					<stop  offset="1" style="stop-color:#23356E"/>
				</linearGradient>
				<path class="st4" d="M52,76.8l-12.4-6.5c-1.3-0.7-2.2-2.1-2.2-3.6v-8.8c0-1.5,1.6-2.5,2.9-1.8L52,62.2V76.8z"/>
			</g>
			<g>
				<path class="st0" d="M52,91.4l-11.6-6.1c-1.3-0.7-2.9,0.3-2.9,1.8v8.8c0,1.5,0.8,2.9,2.2,3.6L52,106V91.4z"/>
				
					<linearGradient id="SVGID_00000093890308173939501210000004665089325655604380_" gradientUnits="userSpaceOnUse" x1="42.0717" y1="-562.9167" x2="48.69" y2="-551.4536" gradientTransform="matrix(1 0 0 -1 0 -462)">
					<stop  offset="0" style="stop-color:#23356E;stop-opacity:0.5"/>
					<stop  offset="1" style="stop-color:#23356E;stop-opacity:0.7"/>
				</linearGradient>
				<path style="fill:url(#SVGID_00000093890308173939501210000004665089325655604380_);" d="M52,91.4l-11.6-6.1
					c-1.3-0.7-2.9,0.3-2.9,1.8v8.8c0,1.5,0.8,2.9,2.2,3.6L52,106V91.4z"/>
			</g>
			<g>
				<path class="st0" d="M52,91.4l12.4-6.5c1.3-0.7,2.2-2.1,2.2-3.6v-8.8c0-1.5-1.6-2.5-2.9-1.8L52,76.8"/>
				
					<linearGradient id="SVGID_00000073722334331339520300000007438087128400841132_" gradientUnits="userSpaceOnUse" x1="61.9919" y1="-548.3403" x2="55.373" y2="-536.8763" gradientTransform="matrix(1 0 0 -1 0 -462)">
					<stop  offset="0" style="stop-color:#23356E;stop-opacity:0.3"/>
					<stop  offset="1" style="stop-color:#23356E;stop-opacity:0.5"/>
				</linearGradient>
				<path style="fill:url(#SVGID_00000073722334331339520300000007438087128400841132_);" d="M52,91.4l12.4-6.5
					c1.3-0.7,2.2-2.1,2.2-3.6v-8.8c0-1.5-1.6-2.5-2.9-1.8L52,76.8"/>
			</g>
			<g>
				<path class="st0" d="M52,120.6l12.4-6.5c1.3-0.7,2.2-2.1,2.2-3.6v-8.8c0-1.5-1.6-2.5-2.9-1.8L52,106"/>
				
					<linearGradient id="SVGID_00000024719244303007394910000009022545552156607364_" gradientUnits="userSpaceOnUse" x1="61.9789" y1="-577.5178" x2="55.3602" y2="-566.0538" gradientTransform="matrix(1 0 0 -1 0 -462)">
					<stop  offset="0" style="stop-color:#23356E;stop-opacity:0"/>
					<stop  offset="1" style="stop-color:#23356E;stop-opacity:0.2"/>
				</linearGradient>
				<path style="fill:url(#SVGID_00000024719244303007394910000009022545552156607364_);" d="M52,120.6l12.4-6.5
					c1.3-0.7,2.2-2.1,2.2-3.6v-8.8c0-1.5-1.6-2.5-2.9-1.8L52,106"/>
			</g>
		</g>
		<g>
			<path class="st0" d="M168.6,31.2L168.6,31.2c-0.3-0.2-0.6-0.4-0.9-0.5c-0.1,0-0.1-0.1-0.2-0.1c-0.2-0.1-0.4-0.2-0.6-0.2
				c-0.1,0-0.2-0.1-0.3-0.1c-0.2-0.1-0.4-0.1-0.6-0.2c-0.1,0-0.2,0-0.3,0c-0.3,0-0.6-0.1-1-0.1h-11.5c0.1,0.4,0.2,0.8,0.4,1.2
				c0.1,0.4,0.3,0.8,0.5,1.2l19.1,42.3c1.5,3.3,3.5,5.8,6,7.4s5.6,2.4,9.5,2.4l0,0l0,0c3.9,0,7-0.8,9.5-2.4s4.5-4.1,6-7.4l19.1-42.3
				c0.2-0.4,0.4-0.8,0.5-1.2c0.1-0.4,0.2-0.8,0.4-1.2h-11.5c-0.3,0-0.6,0-1,0.1c-0.1,0-0.2,0-0.3,0c-0.2,0-0.4,0.1-0.6,0.2
				c-0.1,0-0.2,0.1-0.3,0.1c-0.2,0.1-0.4,0.2-0.6,0.2c-0.1,0-0.1,0.1-0.2,0.1c-0.3,0.1-0.6,0.3-0.8,0.5c0,0,0,0-0.1,0
				c-0.2,0.2-0.5,0.3-0.7,0.5c-0.1,0-0.1,0.1-0.2,0.1c-0.2,0.2-0.4,0.3-0.5,0.5l-0.1,0.1c-0.1,0.1-0.1,0.1-0.2,0.2v0.1
				c-0.3,0.4-0.6,0.9-0.9,1.3l-0.2,0.5l-1.6,3.7L199.2,50L191,69.2c-0.3,0.6-0.6,1.1-1,1.3c-0.4,0.2-0.8,0.3-1.3,0.3
				s-0.9-0.1-1.3-0.3c-0.4-0.2-0.8-0.7-1-1.3l-8.1-19.1L173,38.4l-1.6-3.7l-0.2-0.5c-0.2-0.5-0.5-0.9-0.9-1.3v-0.1
				c-0.1-0.1-0.1-0.1-0.2-0.2l-0.1-0.1c-0.2-0.2-0.3-0.4-0.5-0.5c-0.1,0-0.1-0.1-0.2-0.1C169.1,31.6,168.8,31.4,168.6,31.2"/>
			<path class="st0" d="M373.7,30.1h-7.2v7.2v39v7.2h7.2c4,0,7.2-3.2,7.2-7.2v-39C380.9,33.3,377.7,30.1,373.7,30.1"/>
			<path class="st0" d="M349.8,30.1c-4,0-7.2,3.2-7.2,7.2v27.3c0,0.9-0.4,1.4-1.1,1.4c-0.3,0-0.5,0-0.7-0.1s-0.4-0.2-0.6-0.5
				l-26.1-31.2c-1.7-2-3.4-3.3-5.1-4.1c-1.7-0.8-3.9-1.2-6.4-1.2c-1.8,0-3.5,0.2-5,0.7s-2.8,1.2-4,2.2c-1.1,1-2,2.3-2.6,3.9
				s-0.9,3.5-0.9,5.8v32.8v4.2v5.1h6.9c4,0,7.2-3.2,7.2-7.2v-29c0-0.5,0.1-0.8,0.4-1.1s0.6-0.4,1-0.4s0.8,0.2,1.3,0.7l29.3,33.9
				c1.3,1.5,2.8,2.5,4.5,3.2s3.7,1,6,1c1.3,0,2.6-0.2,3.8-0.7c1.2-0.4,2.3-1.1,3.2-2.1c0.9-0.9,1.7-2.1,2.2-3.6
				c0.5-1.4,0.8-3.2,0.8-5.2V39.6v-4.7V30h-6.9L349.8,30.1L349.8,30.1z"/>
			<path class="st0" d="M162.4,82.3c-0.1-0.4-0.3-0.8-0.5-1.2l-2.7-5.9l-16.4-36.4c-1.5-3.3-3.5-5.8-6-7.4s-5.6-2.5-9.5-2.5l0,0l0,0
				c-3.8,0-7,0.8-9.5,2.5c-2.5,1.6-4.5,4.1-6,7.4l-11.1,24.7l-5.3,11.8l-2.7,5.9c-0.2,0.4-0.4,0.8-0.5,1.2c-0.1,0.4-0.2,0.8-0.3,1.2
				h11.5c0.3,0,0.6,0,1-0.1c0.1,0,0.2,0,0.3-0.1c0.2,0,0.4-0.1,0.7-0.2c0.1,0,0.2-0.1,0.3-0.1c0.2-0.1,0.4-0.2,0.7-0.2
				c0.1,0,0.2-0.1,0.2-0.1c0.3-0.1,0.6-0.3,0.8-0.4c0,0,0,0,0.1,0c0.2-0.2,0.5-0.3,0.7-0.5c0.1-0.1,0.1-0.1,0.2-0.1
				c0.2-0.2,0.4-0.3,0.5-0.5c0-0.1,0.1-0.1,0.1-0.2c0.1-0.1,0.1-0.1,0.2-0.2v-0.1c0.3-0.4,0.6-0.9,0.9-1.3l0.2-0.5l1.6-3.7l5.2-11.8
				l8.1-19.1c0.3-0.6,0.6-1.1,1-1.3s0.8-0.3,1.3-0.3s0.9,0.1,1.3,0.3c0.4,0.2,0.8,0.7,1,1.3l8.1,19.1H134h-0.2h-12.9l-0.6,1.4
				l-4.6,10.4h11.1H139h3.9l1.6,3.7l0.2,0.5c0.2,0.5,0.5,0.9,0.9,1.3v0.1c0.1,0.1,0.1,0.1,0.2,0.2c0,0.1,0.1,0.1,0.1,0.2
				c0.2,0.2,0.3,0.4,0.5,0.5c0.1,0.1,0.1,0.1,0.2,0.1c0.2,0.2,0.4,0.4,0.7,0.5c0,0,0,0,0.1,0c0.3,0.2,0.5,0.3,0.8,0.4
				c0.1,0,0.1,0.1,0.2,0.1c0.2,0.1,0.4,0.2,0.6,0.2c0.1,0,0.2,0.1,0.3,0.1c0.2,0.1,0.4,0.1,0.6,0.2c0.1,0,0.2,0,0.3,0.1
				c0.3,0,0.6,0.1,1,0.1h11.5C162.7,83,162.6,82.7,162.4,82.3"/>
			<path class="st0" d="M282.4,82.3c-0.1-0.4-0.3-0.8-0.5-1.2l-2.7-5.9l-16.4-36.4c-1.5-3.3-3.5-5.8-6-7.4s-5.6-2.5-9.5-2.5l0,0l0,0
				c-3.9,0-7,0.8-9.5,2.5c-2.5,1.6-4.5,4.1-6,7.4l-11.1,24.7l-5.3,11.8l-2.7,5.9c-0.2,0.4-0.4,0.8-0.5,1.2c-0.1,0.4-0.2,0.8-0.4,1.2
				h11.5c0.3,0,0.6,0,1-0.1c0.1,0,0.2,0,0.3-0.1c0.2,0,0.4-0.1,0.6-0.2c0.1,0,0.2-0.1,0.3-0.1c0.2-0.1,0.4-0.2,0.6-0.2
				c0.1,0,0.1-0.1,0.2-0.1c0.3-0.1,0.6-0.3,0.8-0.4c0,0,0,0,0.1,0c0.2-0.2,0.5-0.3,0.7-0.5c0.1-0.1,0.1-0.1,0.2-0.1
				c0.2-0.2,0.4-0.3,0.5-0.5c0-0.1,0.1-0.1,0.1-0.2c0.1-0.1,0.1-0.1,0.2-0.2v-0.1c0.3-0.4,0.6-0.9,0.9-1.3L230,79l1.6-3.7l5.2-11.8
				l8.1-19.1c0.3-0.6,0.6-1.1,1-1.3s0.8-0.3,1.3-0.3s0.9,0.1,1.3,0.3c0.4,0.2,0.8,0.7,1,1.3l8.1,19.1h-3.9h-0.2h-12.9l-0.6,1.4
				l-4.6,10.4h11.1H259h3.9l1.6,3.7l0.2,0.5c0.2,0.5,0.5,0.9,0.9,1.3v0.1c0,0.1,0.1,0.1,0.2,0.2c0,0.1,0.1,0.1,0.1,0.2
				c0.2,0.2,0.3,0.4,0.5,0.5c0,0.1,0.1,0.1,0.2,0.1c0.2,0.2,0.5,0.4,0.7,0.5l0,0c0.3,0.2,0.5,0.3,0.8,0.4c0.1,0,0.1,0.1,0.2,0.1
				c0.2,0.1,0.4,0.2,0.6,0.2c0.1,0,0.2,0.1,0.3,0.1c0.2,0.1,0.4,0.1,0.6,0.2c0.1,0,0.2,0,0.3,0.1c0.3,0,0.6,0.1,1,0.1h11.5
				C282.7,83,282.6,82.7,282.4,82.3"/>
		</g>
		<g>
			<path class="st1" d="M96,103.3h-4.2v-3h12v3h-4.2v11.4H96V103.3z"/>
			<path class="st1" d="M117.1,114.7h-10.9v-14.4H117v2.9h-7.4v2.7h6.5v2.9h-6.5v2.9h7.5V114.7z"/>
			<path class="st1" d="M127.4,100.1c1.5,0,3.1,0.3,4.5,1l-0.2,3c-1.1-0.5-2.4-0.8-3.8-0.8c-2.7,0-5.3,1.2-5.3,4.2
				c0,2.7,2.1,4.4,4.9,4.4c1.5,0,3-0.3,4.2-1.1l0.5,2.9c-1.6,0.8-3.3,1.2-5.2,1.2c-4.3,0-7.9-2.9-7.9-7.4
				C119,102.6,123.1,100.1,127.4,100.1z"/>
			<path class="st1" d="M138.4,114.7h-3.5v-14.4h3.5v5.6h6.2v-5.6h3.5v14.4h-3.5v-5.9h-6.2V114.7z"/>
			<path class="st1" d="M155,114.7h-3.5v-14.4h3l7.3,8.8v-8.8h3.5v14.4h-3L155,106V114.7z"/>
			<path class="st1" d="M175.9,100.1c4.5,0,7.6,3,7.6,7.4c0,4.4-3.1,7.4-7.6,7.4c-4.5,0-7.7-3-7.7-7.4
				C168.2,103.1,171.3,100.1,175.9,100.1z M175.9,111.7c2.4,0,4-1.7,4-4.2c0-2.5-1.6-4.2-4-4.2c-2.5,0-4.1,1.7-4.1,4.2
				C171.8,110,173.4,111.7,175.9,111.7z"/>
			<path class="st1" d="M197.1,114.7h-10.8v-14.4h3.5v11.4h7.3V114.7z"/>
			<path class="st1" d="M205.8,100.1c4.5,0,7.6,3,7.6,7.4c0,4.4-3.1,7.4-7.6,7.4c-4.5,0-7.7-3-7.7-7.4
				C198.2,103.1,201.3,100.1,205.8,100.1z M205.9,111.7c2.4,0,4-1.7,4-4.2c0-2.5-1.6-4.2-4-4.2c-2.5,0-4.1,1.7-4.1,4.2
				C201.7,110,203.4,111.7,205.9,111.7z"/>
			<path class="st1" d="M226.3,109.3H223v-2.8h6.8v7c-1.7,0.9-3.8,1.4-5.7,1.4c-1.7,0-3.1-0.3-4.4-0.9c-2.5-1.3-3.9-3.6-3.9-6.5
				c0-4.9,4.1-7.4,8.5-7.4c1.6,0,3.3,0.3,4.8,1l-0.2,3c-1.3-0.6-2.8-0.9-4.3-0.9c-2.8,0-5.3,1.2-5.3,4.3c0,2.7,2,4.3,4.6,4.3
				c0.7,0,1.8-0.1,2.4-0.3V109.3z"/>
			<path class="st1" d="M237.7,109.3l-6.1-9h4.2l3.7,5.5l3.8-5.5h4l-6.1,9v5.3h-3.5V109.3z"/>
			<path class="st1" d="M265.1,101.1l-0.3,3c-0.5-0.3-2.7-1-4.4-1c-1.2,0-2.2,0.3-2.2,1.3c0,0.9,0.8,1.1,1.7,1.3l2.1,0.6
				c2.6,0.8,4,1.9,4,4.1c0,2.6-2.2,4.4-5.7,4.4c-2.1,0-4.5-0.6-5.4-1.1l0.3-3.1c0.4,0.4,2.9,1.1,4.9,1.1c1.3,0,2.4-0.3,2.4-1.3
				c0-0.7-0.5-1-1.5-1.3l-2.2-0.6c-1.9-0.6-3.9-1.6-3.9-4.1c0-2.7,2.2-4.5,5.6-4.5C262.4,100.1,264,100.5,265.1,101.1z"/>
			<path class="st1" d="M275.8,100.1c4.5,0,7.6,3,7.6,7.4c0,4.4-3.1,7.4-7.6,7.4c-4.5,0-7.7-3-7.7-7.4
				C268.2,103.1,271.3,100.1,275.8,100.1z M275.8,111.7c2.4,0,4-1.7,4-4.2c0-2.5-1.6-4.2-4-4.2c-2.5,0-4.1,1.7-4.1,4.2
				C271.7,110,273.4,111.7,275.8,111.7z"/>
			<path class="st1" d="M297.1,114.7h-10.8v-14.4h3.5v11.4h7.3V114.7z"/>
			<path class="st1" d="M299,100.3h3.5v9c0,1.8,1.2,2.6,2.8,2.6c1.7,0,2.9-0.8,2.9-2.6v-9h3.5v9.2c0,3.8-3,5.4-6.3,5.4
				c-3.6,0-6.3-1.7-6.3-5.4V100.3z"/>
			<path class="st1" d="M318.3,103.3H314v-3h12v3h-4.2v11.4h-3.5V103.3z"/>
			<path class="st1" d="M331.9,114.7h-3.5v-14.4h3.5V114.7z"/>
			<path class="st1" d="M342.5,100.1c4.5,0,7.6,3,7.6,7.4c0,4.4-3.1,7.4-7.6,7.4c-4.5,0-7.7-3-7.7-7.4
				C334.8,103.1,338,100.1,342.5,100.1z M342.5,111.7c2.4,0,4-1.7,4-4.2c0-2.5-1.6-4.2-4-4.2c-2.5,0-4.1,1.7-4.1,4.2
				C338.4,110,340.1,111.7,342.5,111.7z"/>
			<path class="st1" d="M356.5,114.7H353v-14.4h3l7.3,8.8v-8.8h3.5v14.4h-3l-7.3-8.7V114.7z"/>
			<path class="st1" d="M380.2,101.1l-0.3,3c-0.5-0.3-2.7-1-4.4-1c-1.2,0-2.2,0.3-2.2,1.3c0,0.9,0.8,1.1,1.7,1.3l2.1,0.6
				c2.6,0.8,4,1.9,4,4.1c0,2.6-2.2,4.4-5.7,4.4c-2.1,0-4.5-0.6-5.4-1.1l0.3-3.1c0.4,0.4,2.9,1.1,4.9,1.1c1.3,0,2.4-0.3,2.4-1.3
				c0-0.7-0.5-1-1.5-1.3l-2.2-0.6c-1.9-0.6-3.9-1.6-3.9-4.1c0-2.7,2.2-4.5,5.6-4.5C377.5,100.1,379.1,100.5,380.2,101.1z"/>
		</g>
	</g>
	<g>
		<path class="st1" d="M176.4,132h-3.7l-1.3,3.2h-0.7l3.7-9.2h0.4l3.6,9.2h-0.7L176.4,132z M172.9,131.4h3.3l-1.2-3.3
			c-0.1-0.3-0.2-0.6-0.4-1.1c-0.1,0.4-0.2,0.8-0.4,1.1L172.9,131.4z"/>
		<path class="st1" d="M184.3,135.2v-4.4c0-0.7-0.1-1.2-0.4-1.5c-0.3-0.3-0.7-0.5-1.3-0.5c-0.8,0-1.4,0.2-1.8,0.6
			c-0.4,0.4-0.6,1.1-0.6,2v3.8h-0.6v-6.8h0.5l0.1,0.9l0,0c0.4-0.7,1.2-1.1,2.4-1.1c1.5,0,2.3,0.8,2.3,2.5v4.4L184.3,135.2
			L184.3,135.2z"/>
		<path class="st1" d="M190.6,135.2V126h0.6v9.1L190.6,135.2L190.6,135.2z"/>
		<path class="st1" d="M198.4,135.2v-4.4c0-0.7-0.1-1.2-0.4-1.5c-0.3-0.3-0.7-0.5-1.3-0.5c-0.8,0-1.4,0.2-1.8,0.6
			c-0.4,0.4-0.6,1.1-0.6,2v3.8h-0.6v-6.8h0.5l0.1,0.9l0,0c0.4-0.7,1.2-1.1,2.4-1.1c1.5,0,2.3,0.8,2.3,2.5v4.4L198.4,135.2
			L198.4,135.2z"/>
		<path class="st1" d="M203.7,128.3c0.5,0,0.9,0.1,1.3,0.3c0.4,0.2,0.7,0.5,1,0.9l0,0c0-0.5,0-1,0-1.5v-2.4h0.6v9.7h-0.4l-0.2-1l0,0
			c-0.5,0.8-1.3,1.2-2.2,1.2s-1.7-0.3-2.1-0.9c-0.5-0.6-0.7-1.4-0.7-2.6c0-1.2,0.2-2.1,0.7-2.7C202.1,128.6,202.8,128.3,203.7,128.3
			z M203.7,128.8c-0.7,0-1.3,0.3-1.7,0.8s-0.6,1.3-0.6,2.3c0,1.9,0.8,2.9,2.2,2.9c0.8,0,1.3-0.2,1.7-0.7s0.5-1.2,0.5-2.2v-0.1
			c0-1.1-0.2-1.8-0.5-2.3C205.1,129.1,204.5,128.8,203.7,128.8z"/>
		<path class="st1" d="M214.5,131.8c0,1.1-0.3,2-0.8,2.6s-1.3,0.9-2.2,0.9c-0.6,0-1.1-0.1-1.6-0.4c-0.4-0.3-0.8-0.7-1.1-1.2
			c-0.2-0.5-0.4-1.2-0.4-1.9c0-1.1,0.3-2,0.8-2.6s1.3-0.9,2.2-0.9s1.7,0.3,2.2,0.9C214.2,129.8,214.5,130.7,214.5,131.8z
			 M209.1,131.8c0,0.9,0.2,1.7,0.6,2.2c0.4,0.5,1,0.8,1.7,0.8s1.3-0.3,1.7-0.8s0.6-1.2,0.6-2.2s-0.2-1.7-0.6-2.2
			c-0.4-0.5-1-0.8-1.8-0.8s-1.3,0.3-1.7,0.8C209.3,130.1,209.1,130.8,209.1,131.8z"/>
		<path class="st1" d="M218.2,134.8c0.4,0,0.7,0,1-0.1v0.5c-0.3,0.1-0.6,0.1-1,0.1c-0.6,0-1-0.2-1.3-0.5s-0.4-0.8-0.4-1.5v-4.4h-1
			v-0.4l1-0.3l0.3-1.5h0.3v1.6h2v0.5h-2v4.3c0,0.5,0.1,0.9,0.3,1.2C217.5,134.6,217.8,134.8,218.2,134.8z"/>
		<path class="st1" d="M223.4,128.3c0.3,0,0.6,0,0.9,0.1l-0.1,0.6c-0.3-0.1-0.6-0.1-0.9-0.1c-0.6,0-1.1,0.2-1.4,0.7
			s-0.6,1.1-0.6,1.9v3.8h-0.6v-6.8h0.5l0.1,1.2l0,0c0.3-0.5,0.6-0.9,0.9-1.1C222.5,128.4,222.9,128.3,223.4,128.3z"/>
		<path class="st1" d="M231.3,131.8c0,1.1-0.3,2-0.8,2.6s-1.3,0.9-2.2,0.9c-0.6,0-1.1-0.1-1.6-0.4c-0.4-0.3-0.8-0.7-1.1-1.2
			c-0.2-0.5-0.4-1.2-0.4-1.9c0-1.1,0.3-2,0.8-2.6s1.3-0.9,2.2-0.9s1.7,0.3,2.2,0.9C231,129.8,231.3,130.7,231.3,131.8z M225.9,131.8
			c0,0.9,0.2,1.7,0.6,2.2c0.4,0.5,1,0.8,1.7,0.8s1.3-0.3,1.7-0.8s0.6-1.2,0.6-2.2s-0.2-1.7-0.6-2.2c-0.4-0.5-1-0.8-1.8-0.8
			s-1.3,0.3-1.7,0.8C226.1,130.1,225.9,130.8,225.9,131.8z"/>
		<path class="st1" d="M237.9,135.2v-4.4c0-0.7-0.1-1.2-0.4-1.5c-0.3-0.3-0.7-0.5-1.3-0.5c-0.8,0-1.4,0.2-1.8,0.6
			c-0.4,0.4-0.6,1.1-0.6,2v3.8h-0.6v-6.8h0.5l0.1,0.9l0,0c0.4-0.7,1.2-1.1,2.4-1.1c1.5,0,2.3,0.8,2.3,2.5v4.4L237.9,135.2
			L237.9,135.2z"/>
		<path class="st1" d="M240.7,126.5c0-0.4,0.1-0.6,0.4-0.6c0.1,0,0.2,0.1,0.3,0.2s0.1,0.2,0.1,0.4s0,0.3-0.1,0.4s-0.2,0.2-0.3,0.2
			C240.8,127.1,240.7,126.9,240.7,126.5z M241.4,135.2h-0.6v-6.8h0.6V135.2z"/>
		<path class="st1" d="M245.3,131.7l-2.4-3.3h0.7l2,2.9l2-2.9h0.7l-2.3,3.3l2.5,3.5h-0.7l-2.1-3l-2.1,3h-0.7L245.3,131.7z"/>
		<path class="st1" d="M257.9,132h-3.7l-1.3,3.2h-0.7l3.7-9.2h0.4l3.6,9.2h-0.7L257.9,132z M254.4,131.4h3.3l-1.2-3.3
			c-0.1-0.3-0.2-0.6-0.4-1.1c-0.1,0.4-0.2,0.8-0.4,1.1L254.4,131.4z"/>
		<path class="st1" d="M262.5,135.2l-2.6-6.8h0.6l1.8,4.6c0.2,0.6,0.4,1.1,0.5,1.6l0,0c0.2-0.6,0.4-1.1,0.5-1.6l1.8-4.6h0.6
			l-2.6,6.8H262.5L262.5,135.2z"/>
		<path class="st1" d="M271.1,135.2l-0.2-1.1l0,0c-0.3,0.4-0.7,0.8-1,0.9s-0.8,0.3-1.3,0.3c-0.7,0-1.2-0.2-1.6-0.5s-0.6-0.8-0.6-1.4
			c0-0.7,0.3-1.2,0.8-1.6c0.5-0.4,1.4-0.6,2.4-0.6h1.3v-0.4c0-0.6-0.1-1.1-0.4-1.5s-0.7-0.5-1.3-0.5c-0.6,0-1.3,0.2-2,0.5l-0.2-0.5
			c0.8-0.4,1.5-0.5,2.2-0.5c0.8,0,1.3,0.2,1.7,0.6c0.4,0.4,0.5,1,0.5,1.8v4.5H271.1L271.1,135.2z M268.6,134.8
			c0.7,0,1.3-0.2,1.7-0.6c0.4-0.4,0.6-1,0.6-1.7v-0.7l-1.2,0.1c-1,0.1-1.6,0.2-2,0.4s-0.6,0.6-0.6,1.2c0,0.4,0.1,0.8,0.4,1
			C267.7,134.6,268.1,134.8,268.6,134.8z"/>
		<path class="st1" d="M278.5,135.2v-4.4c0-0.7-0.1-1.2-0.4-1.5s-0.7-0.5-1.3-0.5c-0.8,0-1.4,0.2-1.8,0.6c-0.4,0.4-0.6,1.1-0.6,2
			v3.8h-0.6v-6.8h0.5l0.1,0.9l0,0c0.4-0.7,1.2-1.1,2.4-1.1c1.5,0,2.3,0.8,2.3,2.5v4.4L278.5,135.2L278.5,135.2z"/>
		<path class="st1" d="M281.2,126.5c0-0.4,0.1-0.6,0.4-0.6c0.1,0,0.2,0.1,0.3,0.2c0.1,0.1,0.1,0.2,0.1,0.4s0,0.3-0.1,0.4
			s-0.2,0.2-0.3,0.2C281.3,127.1,281.2,126.9,281.2,126.5z M281.9,135.2h-0.6v-6.8h0.6V135.2z"/>
		<path class="st1" d="M291.3,130.6h3.4v4.2c-0.9,0.4-1.9,0.6-3,0.6c-1.4,0-2.5-0.4-3.3-1.2s-1.1-2-1.1-3.5c0-0.9,0.2-1.8,0.6-2.5
			s0.9-1.3,1.6-1.7c0.7-0.4,1.5-0.6,2.5-0.6s1.9,0.2,2.7,0.6l-0.3,0.6c-0.8-0.4-1.6-0.6-2.5-0.6c-1.2,0-2.2,0.4-2.9,1.1
			c-0.7,0.7-1.1,1.7-1.1,3c0,1.4,0.3,2.4,1,3.1c0.7,0.7,1.7,1,3,1c0.8,0,1.6-0.1,2.1-0.4v-3.2h-2.7L291.3,130.6L291.3,130.6z"/>
		<path class="st1" d="M299.5,128.3c0.3,0,0.6,0,0.9,0.1l-0.1,0.6c-0.3-0.1-0.6-0.1-0.9-0.1c-0.6,0-1.1,0.2-1.4,0.7
			s-0.6,1.1-0.6,1.9v3.8h-0.6v-6.8h0.5l0.1,1.2l0,0c0.3-0.5,0.6-0.9,0.9-1.1C298.6,128.4,299,128.3,299.5,128.3z"/>
		<path class="st1" d="M307.4,131.8c0,1.1-0.3,2-0.8,2.6s-1.3,0.9-2.2,0.9c-0.6,0-1.1-0.1-1.6-0.4s-0.8-0.7-1-1.2s-0.4-1.2-0.4-1.9
			c0-1.1,0.3-2,0.8-2.6s1.3-0.9,2.2-0.9c0.9,0,1.7,0.3,2.2,0.9S307.4,130.7,307.4,131.8z M302,131.8c0,0.9,0.2,1.7,0.6,2.2
			s1,0.8,1.7,0.8s1.3-0.3,1.7-0.8c0.4-0.5,0.6-1.2,0.6-2.2s-0.2-1.7-0.6-2.2s-1-0.8-1.8-0.8s-1.3,0.3-1.7,0.8
			C302.2,130.1,302,130.8,302,131.8z"/>
		<path class="st1" d="M309.8,128.4v4.4c0,0.7,0.1,1.2,0.4,1.5s0.7,0.5,1.3,0.5c0.8,0,1.4-0.2,1.8-0.6s0.6-1.1,0.6-2v-3.8h0.6v6.8
			H314l-0.1-0.9l0,0c-0.4,0.7-1.2,1.1-2.4,1.1c-1.5,0-2.3-0.8-2.3-2.5v-4.4L309.8,128.4L309.8,128.4z"/>
		<path class="st1" d="M319.8,135.3c-1,0-1.8-0.4-2.3-1.2l0,0v0.5c0,0.3,0,0.6,0,1v2.6h-0.6v-9.9h0.5l0.1,1l0,0
			c0.5-0.7,1.2-1.1,2.2-1.1c0.9,0,1.6,0.3,2.1,0.9c0.5,0.6,0.7,1.5,0.7,2.6s-0.2,2-0.8,2.6C321.3,135,320.6,135.3,319.8,135.3z
			 M319.7,134.8c0.7,0,1.2-0.3,1.6-0.8s0.6-1.2,0.6-2.2c0-2-0.7-3-2.2-3c-0.8,0-1.4,0.2-1.8,0.6c-0.4,0.4-0.6,1.1-0.6,2.1v0.2
			c0,1.1,0.2,1.8,0.5,2.3C318.4,134.5,318.9,134.8,319.7,134.8z"/>
		<path class="st1" d="M331.9,126.5c-1.1,0-2,0.4-2.7,1.1c-0.7,0.7-1,1.7-1,3s0.3,2.3,0.9,3s1.5,1.1,2.7,1.1c0.8,0,1.5-0.1,2.1-0.3
			v0.6c-0.6,0.2-1.4,0.3-2.3,0.3c-1.3,0-2.3-0.4-3-1.2s-1.1-2-1.1-3.5c0-0.9,0.2-1.8,0.5-2.5c0.4-0.7,0.9-1.3,1.5-1.6
			c0.7-0.4,1.4-0.6,2.3-0.6s1.7,0.2,2.4,0.5L334,127C333.3,126.7,332.6,126.5,331.9,126.5z"/>
		<path class="st1" d="M341.4,131.8c0,1.1-0.3,2-0.8,2.6s-1.3,0.9-2.2,0.9c-0.6,0-1.1-0.1-1.6-0.4s-0.8-0.7-1-1.2s-0.4-1.2-0.4-1.9
			c0-1.1,0.3-2,0.8-2.6s1.3-0.9,2.2-0.9c0.9,0,1.7,0.3,2.2,0.9S341.4,130.7,341.4,131.8z M336,131.8c0,0.9,0.2,1.7,0.6,2.2
			s1,0.8,1.7,0.8s1.3-0.3,1.7-0.8c0.4-0.5,0.6-1.2,0.6-2.2s-0.2-1.7-0.6-2.2s-1-0.8-1.8-0.8s-1.3,0.3-1.7,0.8
			C336.2,130.1,336,130.8,336,131.8z"/>
		<path class="st1" d="M351.8,135.2v-4.5c0-0.7-0.1-1.1-0.4-1.4s-0.7-0.5-1.2-0.5c-0.7,0-1.2,0.2-1.5,0.6c-0.3,0.4-0.5,1-0.5,1.8v4
			h-0.6v-4.6c0-1.1-0.5-1.7-1.6-1.7c-0.7,0-1.2,0.2-1.6,0.6c-0.3,0.4-0.5,1.1-0.5,2v3.8h-0.6v-6.8h0.5l0.1,0.9l0,0
			c0.2-0.3,0.5-0.6,0.8-0.8c0.4-0.2,0.7-0.3,1.1-0.3c1.1,0,1.8,0.4,2.1,1.2l0,0c0.2-0.4,0.5-0.7,0.9-0.9s0.8-0.3,1.3-0.3
			c0.7,0,1.3,0.2,1.7,0.6c0.4,0.4,0.6,1,0.6,1.9v4.4H351.8z"/>
		<path class="st1" d="M357.5,135.3c-1,0-1.8-0.4-2.3-1.2l0,0v0.5c0,0.3,0,0.6,0,1v2.6h-0.6v-9.9h0.5l0.1,1l0,0
			c0.5-0.7,1.2-1.1,2.2-1.1c0.9,0,1.6,0.3,2.1,0.9c0.5,0.6,0.7,1.5,0.7,2.6s-0.2,2-0.8,2.6C359.1,135,358.4,135.3,357.5,135.3z
			 M357.5,134.8c0.7,0,1.2-0.3,1.6-0.8s0.6-1.2,0.6-2.2c0-2-0.7-3-2.2-3c-0.8,0-1.4,0.2-1.8,0.6c-0.4,0.4-0.6,1.1-0.6,2.1v0.2
			c0,1.1,0.2,1.8,0.5,2.3C356.1,134.5,356.7,134.8,357.5,134.8z"/>
		<path class="st1" d="M366.4,135.2l-0.2-1.1l0,0c-0.3,0.4-0.7,0.8-1,0.9s-0.8,0.3-1.3,0.3c-0.7,0-1.2-0.2-1.6-0.5s-0.6-0.8-0.6-1.4
			c0-0.7,0.3-1.2,0.8-1.6c0.5-0.4,1.4-0.6,2.4-0.6h1.3v-0.4c0-0.6-0.1-1.1-0.4-1.5s-0.7-0.5-1.3-0.5c-0.6,0-1.3,0.2-2,0.5l-0.2-0.5
			c0.8-0.4,1.5-0.5,2.2-0.5c0.8,0,1.3,0.2,1.7,0.6c0.4,0.4,0.5,1,0.5,1.8v4.5H366.4L366.4,135.2z M363.9,134.8
			c0.7,0,1.3-0.2,1.7-0.6c0.4-0.4,0.6-1,0.6-1.7v-0.7l-1.2,0.1c-1,0.1-1.6,0.2-2,0.4s-0.6,0.6-0.6,1.2c0,0.4,0.1,0.8,0.4,1
			C363,134.6,363.4,134.8,363.9,134.8z"/>
		<path class="st1" d="M373.8,135.2v-4.4c0-0.7-0.1-1.2-0.4-1.5s-0.7-0.5-1.3-0.5c-0.8,0-1.4,0.2-1.8,0.6c-0.4,0.4-0.6,1.1-0.6,2
			v3.8H369v-6.8h0.5l0.1,0.9l0,0c0.4-0.7,1.2-1.1,2.4-1.1c1.5,0,2.3,0.8,2.3,2.5v4.4L373.8,135.2L373.8,135.2z"/>
		<path class="st1" d="M375.5,128.4h0.6l1.4,3.8c0.4,1.2,0.7,2,0.8,2.4l0,0c0.2-0.5,0.5-1.3,0.9-2.4l1.4-3.8h0.6l-3,7.9
			c-0.2,0.6-0.5,1.1-0.6,1.3c-0.2,0.2-0.4,0.4-0.6,0.5s-0.5,0.2-0.8,0.2c-0.2,0-0.5,0-0.8-0.1v-0.5c0.2,0.1,0.5,0.1,0.8,0.1
			c0.2,0,0.4-0.1,0.6-0.1s0.3-0.3,0.4-0.5s0.3-0.5,0.5-1s0.3-0.8,0.3-0.9L375.5,128.4z"/>
	</g>
</g>
</svg>
