<?xml version="1.0" encoding="utf-8"?>
<!-- Generator: Adobe Illustrator 26.0.1, SVG Export Plug-In . SVG Version: 6.00 Build 0)  -->
<svg version="1.1" id="Layer_3" xmlns="http://www.w3.org/2000/svg" xmlns:xlink="http://www.w3.org/1999/xlink" x="0px" y="0px"
	 viewBox="0 0 140 140" style="enable-background:new 0 0 140 140;" xml:space="preserve">
<style type="text/css">
	.st0{fill:#FF9E1B;}
</style>
<path class="st0" d="M58,79.2c2-0.8,4.1-1.2,6.3-1.4c2.8,1.4,6.1,1.4,8.8,0c2.1,0.2,4.3,0.6,6.3,1.4C73.3,84.8,64.1,84.8,58,79.2z"
	/>
<path class="st0" d="M85.6,94.5v1.4c-1.7,1.1-3.6,2-5.6,2.5v-6.9l-1.2,7.3c-6.7,1.6-13.7,1.6-20.3,0l-1.2-7.3v6.9
	c-2.1-0.6-4.1-1.6-6-2.8v-5.5c0-1.8,0.3-3.7,0.9-5.4c4.4,4.3,10.3,6.6,16.4,6.6l0,0c3.8,0,7.6-0.9,11-2.7L85.6,94.5z"/>
<path class="st0" d="M68.7,58.5c-5,0-9.1,4.1-9.1,9.1s4.1,9.1,9.1,9.1s9.1-4.1,9.1-9.1C77.7,62.6,73.7,58.5,68.7,58.5z"/>
<path class="st0" d="M76.2,38.5c0-2.5,2-4.6,4.5-4.6c2.5,0,4.6,2,4.6,4.5s-2,4.6-4.5,4.6c0,0,0,0-0.1,0C78.2,43,76.2,41,76.2,38.5z"
	/>
<path class="st0" d="M84.7,45.8c-1.4,0.2-2.7,0.7-3.9,1.5c-1.3-0.8-2.7-1.5-4.2-2c0.1-0.5,0.2-0.9,0.2-1.4c0.6-0.1,1.1-0.2,1.7-0.3
	c0.7,0.4,1.4,0.5,2.2,0.5c0.8,0,1.5-0.2,2.2-0.5c0.5,0,1,0.1,1.5,0.2C84.4,44.5,84.5,45.1,84.7,45.8z"/>
<path class="st0" d="M60.6,45.3c-1.4,0.5-2.8,1.2-4.1,1.9c-1.2-0.7-2.5-1.2-3.9-1.5c0.2-0.6,0.3-1.2,0.4-1.9
	c0.5-0.1,1.1-0.2,1.7-0.3c1.4,0.7,3,0.7,4.4,0c0.5,0,1,0.1,1.4,0.2C60.5,44.3,60.5,44.8,60.6,45.3z"/>
<path class="st0" d="M56.8,43c2.5,0,4.5-2,4.5-4.5s-2-4.5-4.5-4.5s-4.5,2-4.5,4.5S54.3,43,56.8,43L56.8,43z"/>
<path class="st0" d="M54.8,48.4c-1,0.7-2,1.6-2.9,2.5c-3.5,3.5-5.8,8-6.6,12.9c-4-3-4.8-8.7-1.8-12.7c1.7-2.3,4.4-3.6,7.2-3.6
	C52.2,47.4,53.6,47.8,54.8,48.4z"/>
<path class="st0" d="M50.5,82.8c-0.9,1.9-1.4,4-1.5,6.1c-2.8-0.1-5.6-0.5-8.3-1.2l-1.2-7.3v6.9c-2.1-0.6-4.1-1.6-6-2.8V79
	c0-5.5,1.8-10.7,11.5-12.1C44.9,72.7,46.8,78.3,50.5,82.8z"/>
<path class="st0" d="M75,43.5c0,0.4,0,0.8-0.1,1.2c-2-0.5-4.1-0.8-6.2-0.8c-2.1,0-4.2,0.3-6.3,0.8c-0.1-0.4-0.1-0.8-0.1-1.2
	c0-3.5,2.8-6.4,6.4-6.4S75,40,75,43.5z"/>
<path class="st0" d="M95.8,50.7c7.6,0.8,8.6,4.5,8.6,8.6v4c-1.2,0.8-2.5,1.4-3.9,1.8v-4.8l-0.8,5.1c-1.1,0.3-2.2,0.5-3.3,0.7
	c-1.1-0.3-2.1-0.6-3.2-0.8C97.7,61.8,98.8,55.5,95.8,50.7L95.8,50.7z"/>
<path class="st0" d="M94.9,49.5c3.3-1.3,4.9-5,3.6-8.2c-1.3-3.3-5-4.9-8.2-3.6c-2.4,1-4,3.3-4,5.9c0,0.7,0.1,1.4,0.4,2.1
	C89.8,45.6,92.8,47,94.9,49.5z"/>
<path class="st0" d="M39.9,56.5c0,3.4,1.6,6.6,4.3,8.7c-1.1,0.2-2.2,0.4-3.2,0.8c-1.1-0.1-2.2-0.3-3.3-0.6l-0.8-5.1v4.9
	c-1.4-0.4-2.7-1-3.9-1.8v-4c0-4,1-7.8,8.6-8.6C40.5,52.5,39.9,54.5,39.9,56.5z"/>
<path class="st0" d="M50.8,45.6c0.2-0.7,0.3-1.4,0.3-2.1c0-3.5-2.8-6.4-6.4-6.4s-6.4,2.8-6.4,6.4c0,2.6,1.6,5,4.1,5.9
	C44.5,47,47.6,45.6,50.8,45.6z"/>
<path class="st0" d="M88.4,88.8H88c0-0.2,0-0.3,0-0.5L88.4,88.8z"/>
<path class="st0" d="M98.2,87.2c2-0.6,3.9-1.5,5.6-2.7V79c0-5.5-1.8-10.7-11.5-12.1c0.1,4.1-0.8,8.1-2.7,11.7L97,86l0.9-5.6v6.5
	L98.2,87.2z"/>
<path class="st0" d="M95.6,56.5c0,2.9-1.4,5.5-3.6,7.2c-0.8-4.9-3.1-9.4-6.6-12.9c-0.9-0.9-1.9-1.7-2.9-2.5c1.2-0.6,2.6-1,4-1
	c5,0,9.1,4,9.1,9C95.6,56.4,95.6,56.5,95.6,56.5z"/>
<path class="st0" d="M84.1,52.2c-8.5-8.5-22.4-8.5-30.9,0s-8.5,22.4,0,30.9c7.1,7.1,18.2,8.4,26.8,3.2c1.2-0.7,2.3-1.6,3.4-2.5l0,0
	c0.2-0.2,0.5-0.5,0.8-0.7s0.5-0.5,0.7-0.8C92.7,73.7,92.3,60.4,84.1,52.2L84.1,52.2z M78.2,82.5C70,87.8,59,85.4,53.8,77.1
	S50.9,58,59.2,52.7s19.2-2.8,24.4,5.4c3.7,5.8,3.7,13.2,0,19c-0.7,1.1-1.5,2.1-2.4,3C80.3,81,79.3,81.8,78.2,82.5z"/>
<path class="st0" d="M105.6,97.1L87.3,78.9l-0.3-0.3c-0.9-0.9-2.2-1.5-3.5-1.5c-0.7,1.1-1.5,2.1-2.4,3c-0.9,0.9-1.9,1.7-3,2.4
	c0,1.3,0.6,2.6,1.5,3.5l0.3,0.3l1.3,1.3l4.2,4.2l12.6,12.6c2,2,5.3,2,7.4,0S107.6,99.2,105.6,97.1L105.6,97.1z M102.6,101.5
	c-0.4,0.4-1.1,0.4-1.5,0L84.7,85.1l-1.3-1.3l0,0l-0.7-0.7c-0.4-0.4-0.4-1.1,0-1.5s1.1-0.4,1.5,0l7.1,7.1l11.4,11.4
	C103,100.5,103,101.1,102.6,101.5z"/>
</svg>
