<?xml version="1.0" encoding="UTF-8"?>
<svg xmlns="http://www.w3.org/2000/svg" xmlns:xlink="http://www.w3.org/1999/xlink" version="1.1" x="0px" y="0px" viewBox="0 0 50 30" xml:space="preserve">
<style type="text/css">
	.st0{fill:#FF9933;}
	.st1{fill:#FFFFFF;}
	.st2{fill:#128807;}
	.st3{fill:#000088;}
</style>
<rect class="st0" width="50" height="30"></rect>
<rect y="10" class="st1" width="50" height="10"></rect>
<rect y="20" class="st2" width="50" height="10"></rect>
<path class="st3" d="M25,11c-2.2,0-4,1.8-4,4s1.8,4,4,4s4-1.8,4-4S27.2,11,25,11z M28.4,15.6c0,0.1,0,0.2-0.1,0.3l-2-0.7l-0.7-0.1  c0,0,0-0.1,0-0.1l0.7,0.1l2.1-0.1l-2.1-0.1L25.7,15c0,0,0-0.1,0-0.1l0.7-0.1l2-0.7c0,0.1,0,0.2,0.1,0.3c-0.1,0-0.2,0.1-0.1,0.2  c0,0.1,0.1,0.2,0.2,0.2c0,0.1,0,0.2,0,0.3s0,0.2,0,0.3c-0.1,0-0.2,0.1-0.2,0.2C28.3,15.5,28.3,15.6,28.4,15.6z M28.1,16.3  c0,0.1,0,0.2,0.1,0.2c0,0.1-0.1,0.2-0.1,0.3l-1.8-1.2l-0.7-0.3c0,0,0-0.1,0-0.1l0.7,0.3l2.1,0.4c0,0.1-0.1,0.2-0.1,0.3  C28.2,16.1,28.1,16.2,28.1,16.3z M26.5,18.2c0-0.1-0.1-0.1-0.2-0.1c-0.1,0-0.1,0.1-0.1,0.2c-0.1,0-0.2,0.1-0.3,0.1l-0.4-2.1  l-0.3-0.7c0,0,0.1,0,0.1,0l0.3,0.7l1.2,1.8C26.7,18.1,26.6,18.1,26.5,18.2z M26.3,11.9c0.1,0,0.2,0,0.2-0.1c0.1,0,0.2,0.1,0.3,0.1  l-1.2,1.8l-0.3,0.7c0,0-0.1,0-0.1,0l0.3-0.7l0.4-2.1c0.1,0,0.2,0.1,0.3,0.1C26.1,11.8,26.2,11.9,26.3,11.9z M28.1,13.7  c0,0.1,0.1,0.1,0.2,0.1c0,0.1,0.1,0.2,0.1,0.3l-2.1,0.4l-0.7,0.3c0,0,0-0.1,0-0.1l0.7-0.3l1.8-1.2c0,0.1,0.1,0.2,0.1,0.3  C28.1,13.5,28,13.6,28.1,13.7z M27.7,12.7c-0.1,0.1-0.1,0.2,0,0.2c0.1,0.1,0.2,0.1,0.2,0c0.1,0.1,0.1,0.2,0.2,0.2l-1.9,0.9l-0.6,0.4  c0,0,0-0.1-0.1-0.1l0.6-0.4l1.4-1.6l-1.6,1.4l-0.4,0.6c0,0-0.1,0-0.1-0.1l0.4-0.6l0.9-1.9c0.1,0,0.2,0.1,0.2,0.2  c-0.1,0.1,0,0.2,0,0.2c0.1,0.1,0.2,0,0.2,0c0.1,0.1,0.1,0.1,0.2,0.2C27.5,12.6,27.6,12.7,27.7,12.7z M25.3,11.5  c0,0.1,0.1,0.2,0.2,0.2c0.1,0,0.2-0.1,0.2-0.1c0.1,0,0.2,0,0.3,0.1l-0.7,2l-0.1,0.7c0,0-0.1,0-0.1,0l0.1-0.7L25,11.5l-0.1,2.1  l0.1,0.7c0,0-0.1,0-0.1,0l-0.1-0.7l-0.7-2c0.1,0,0.2,0,0.3-0.1c0,0.1,0.1,0.2,0.2,0.1c0.1,0,0.2-0.1,0.2-0.2c0.1,0,0.2,0,0.3,0  S25.2,11.5,25.3,11.5z M23.7,18.1c-0.1,0-0.2,0-0.2,0.1c-0.1,0-0.2-0.1-0.3-0.1l1.2-1.8l0.3-0.7c0,0,0.1,0,0.1,0l-0.3,0.7l-0.4,2.1  c-0.1,0-0.2-0.1-0.3-0.1C23.9,18.2,23.8,18.1,23.7,18.1z M21.9,16.3c0-0.1-0.1-0.1-0.2-0.1c0-0.1-0.1-0.2-0.1-0.3l2.1-0.4l0.7-0.3  c0,0,0,0.1,0,0.1l-0.7,0.3L22,16.7c0-0.1-0.1-0.2-0.1-0.3C21.9,16.5,22,16.4,21.9,16.3z M21.5,15.3c0-0.1,0-0.2,0-0.3s0-0.2,0-0.3  c0.1,0,0.2-0.1,0.2-0.2c0-0.1-0.1-0.2-0.1-0.2c0-0.1,0-0.2,0.1-0.3l2,0.7l0.7,0.1c0,0,0,0.1,0,0.1l-0.7-0.1L21.5,15l2.1,0.1l0.7-0.1  c0,0,0,0.1,0,0.1l-0.7,0.1l-2,0.7c0-0.1,0-0.2-0.1-0.3c0.1,0,0.2-0.1,0.1-0.2C21.7,15.3,21.6,15.3,21.5,15.3z M21.9,13.7  c0-0.1,0-0.2-0.1-0.2c0-0.1,0.1-0.2,0.1-0.3l1.8,1.2l0.7,0.3c0,0,0,0.1,0,0.1l-0.7-0.3l-2.1-0.4c0-0.1,0.1-0.2,0.1-0.3  C21.8,13.9,21.9,13.8,21.9,13.7z M24.7,14.4l-0.3-0.7L23.3,12c0.1,0,0.2-0.1,0.3-0.1c0,0.1,0.1,0.1,0.2,0.1c0.1,0,0.1-0.1,0.1-0.2  c0.1,0,0.2-0.1,0.3-0.1l0.4,2.1l0.3,0.7C24.7,14.3,24.7,14.4,24.7,14.4z M22.7,12.3c0.1,0.1,0.2,0.1,0.2,0c0.1-0.1,0.1-0.2,0-0.2  c0.1-0.1,0.2-0.1,0.2-0.2l0.9,1.9l0.4,0.6c0,0-0.1,0-0.1,0.1l-0.4-0.6l-1.6-1.4l1.4,1.6l0.6,0.4c0,0,0,0.1-0.1,0.1l-0.6-0.4L22,13.3  c0-0.1,0.1-0.2,0.2-0.2c0.1,0.1,0.2,0,0.2,0c0.1-0.1,0-0.2,0-0.2c0.1-0.1,0.1-0.1,0.2-0.2C22.6,12.5,22.7,12.4,22.7,12.3z   M22.3,17.3c0.1-0.1,0.1-0.2,0-0.2c-0.1-0.1-0.2-0.1-0.2,0c-0.1-0.1-0.1-0.2-0.2-0.2l1.9-0.9l0.6-0.4c0,0,0,0.1,0.1,0.1l-0.6,0.4  l-1.4,1.6l1.6-1.4l0.4-0.6c0,0,0.1,0,0.1,0.1l-0.4,0.6L23.3,18c-0.1,0-0.2-0.1-0.2-0.2c0.1-0.1,0-0.2,0-0.2c-0.1-0.1-0.2,0-0.2,0  c-0.1-0.1-0.1-0.1-0.2-0.2C22.5,17.4,22.4,17.3,22.3,17.3z M24.7,18.5c0-0.1-0.1-0.2-0.2-0.2c-0.1,0-0.2,0.1-0.2,0.1  c-0.1,0-0.2,0-0.3-0.1l0.7-2l0.1-0.7c0,0,0.1,0,0.1,0l-0.1,0.7l0.1,2.1l0.1-2.1L25,15.7c0,0,0.1,0,0.1,0l0.1,0.7l0.7,2  c-0.1,0-0.2,0-0.3,0.1c0-0.1-0.1-0.2-0.2-0.1c-0.1,0-0.2,0.1-0.2,0.2c-0.1,0-0.2,0-0.3,0S24.8,18.5,24.7,18.5z M27.3,17.7  c-0.1-0.1-0.2-0.1-0.2,0c-0.1,0.1-0.1,0.2,0,0.2c-0.1,0.1-0.2,0.1-0.2,0.2l-0.9-1.9l-0.4-0.6c0,0,0.1,0,0.1-0.1l0.4,0.6l1.6,1.4  l-1.4-1.6l-0.6-0.4c0,0,0-0.1,0.1-0.1l0.6,0.4l1.9,0.9c0,0.1-0.1,0.2-0.2,0.2c-0.1-0.1-0.2,0-0.2,0c-0.1,0.1,0,0.2,0,0.2  c-0.1,0.1-0.1,0.1-0.2,0.2C27.4,17.5,27.3,17.6,27.3,17.7z"></path>
</svg>
