<?xml version="1.0" encoding="UTF-8"?>
<!DOCTYPE svg PUBLIC "-//W3C//DTD SVG 1.1//EN" "http://www.w3.org/Graphics/SVG/1.1/DTD/svg11.dtd">
<!-- Creator: CorelDRAW X8 -->
<svg xmlns="http://www.w3.org/2000/svg" xml:space="preserve" width="1625px" height="422px" version="1.1" style="shape-rendering:geometricPrecision; text-rendering:geometricPrecision; image-rendering:optimizeQuality; fill-rule:evenodd; clip-rule:evenodd"
viewBox="0 0 1625 422"
 xmlns:xlink="http://www.w3.org/1999/xlink">
 <defs>
  <style type="text/css">
   <![CDATA[
    .fil0 {fill:#009CDE;fill-rule:nonzero}
    .fil1 {fill:#23356D;fill-rule:nonzero}
    .fil3 {fill:#23356D;fill-rule:nonzero;fill-opacity:0.101961}
    .fil2 {fill:#23356D;fill-rule:nonzero;fill-opacity:0.501961}
    .fil4 {fill:url(#id8);fill-rule:nonzero}
    .fil6 {fill:url(#id9);fill-rule:nonzero}
    .fil5 {fill:url(#id10);fill-rule:nonzero}
    .fil7 {fill:url(#id11);fill-rule:nonzero}
   ]]>
  </style>
       <mask id="id0">
  <linearGradient id="id1" gradientUnits="userSpaceOnUse" x1="4.15332" y1="229.888" x2="60.5837" y2="132.148">
   <stop offset="0" style="stop-opacity:0.8; stop-color:white"/>
   <stop offset="0.6" style="stop-opacity:-101.298; stop-color:white"/>
   <stop offset="1" style="stop-opacity:1; stop-color:white"/>
  </linearGradient>
        <rect style="fill:url(#id1)" x="-1" y="134" width="65.7511" height="93.7777"/>
       </mask>
       <mask id="id2">
  <linearGradient id="id3" gradientUnits="userSpaceOnUse" x1="4.15361" y1="359.594" x2="60.5834" y2="261.854">
   <stop offset="0" style="stop-opacity:0.498039; stop-color:white"/>
   <stop offset="0.6" style="stop-opacity:-126.596; stop-color:white"/>
   <stop offset="1" style="stop-opacity:0.698039; stop-color:white"/>
  </linearGradient>
        <rect style="fill:url(#id3)" x="-1" y="264" width="65.7511" height="93.7777"/>
       </mask>
       <mask id="id4">
  <linearGradient id="id5" gradientUnits="userSpaceOnUse" x1="125.44" y1="294.742" x2="69.0091" y2="197.001">
   <stop offset="0" style="stop-opacity:0.298039; stop-color:white"/>
   <stop offset="0.6" style="stop-opacity:-112.341; stop-color:white"/>
   <stop offset="1" style="stop-opacity:0.498039; stop-color:white"/>
  </linearGradient>
        <rect style="fill:url(#id5)" x="64" y="199" width="65.7511" height="93.7789"/>
       </mask>
       <mask id="id6">
  <linearGradient id="id7" gradientUnits="userSpaceOnUse" x1="125.435" y1="424.446" x2="69.005" y2="326.707">
   <stop offset="0" style="stop-opacity:0; stop-color:white"/>
   <stop offset="0.6" style="stop-opacity:25.9961; stop-color:white"/>
   <stop offset="1" style="stop-opacity:0.2; stop-color:white"/>
  </linearGradient>
        <rect style="fill:url(#id7)" x="64" y="329" width="65.7511" height="93.7777"/>
       </mask>
  <linearGradient id="id8" gradientUnits="userSpaceOnUse" x1="4.15332" y1="229.888" x2="60.5837" y2="132.148">
   <stop offset="0" style="stop-opacity:1; stop-color:#364474"/>
   <stop offset="0.6" style="stop-opacity:1; stop-color:#364474"/>
   <stop offset="1" style="stop-opacity:1; stop-color:#364474"/>
  </linearGradient>
  <linearGradient id="id9" gradientUnits="userSpaceOnUse" xlink:href="#id8" x1="125.44" y1="294.742" x2="69.0091" y2="197.001">
  </linearGradient>
  <linearGradient id="id10" gradientUnits="userSpaceOnUse" xlink:href="#id8" x1="4.15361" y1="359.594" x2="60.5834" y2="261.854">
  </linearGradient>
  <linearGradient id="id11" gradientUnits="userSpaceOnUse" xlink:href="#id8" x1="125.435" y1="424.446" x2="69.005" y2="326.707">
  </linearGradient>
 </defs>
 <g id="__x0023_Layer_x0020_1">
  <metadata id="CorelCorpID_0Corel-Layer"/>
  <g id="_1859638320576">
   <path class="fil0" d="M361 410c-1,0 -1,-1 -1,-2l-6 -13 -37 -81c-3,-7 -7,-13 -13,-16 -5,-4 -12,-6 -21,-6l0 0c-8,0 -15,2 -21,6 -5,3 -10,9 -13,16l-25 55 -11 26 -6 13c-1,1 -1,2 -2,2 0,1 0,2 0,3l25 0c1,0 2,0 2,0 1,0 1,0 1,0 0,0 1,-1 1,-1 1,0 1,0 1,0 0,0 1,0 2,0 0,0 0,0 0,-1 1,0 1,0 2,-1 0,0 0,0 0,0 0,0 1,0 1,-1 1,0 1,0 1,0 0,0 1,-1 1,-1 0,0 0,0 0,-1 0,0 0,0 1,0l0 0c0,-1 1,-2 1,-3l1 -1 4 -8 11 -26 18 -42c1,-2 1,-3 2,-3 1,-1 2,-1 3,-1 1,0 2,0 3,1 1,0 2,1 2,3l18 42 -8 0 -1 0 -28 0 -2 3 -10 23 25 0 27 0 9 0 3 8 1 1c0,1 1,2 2,3l0 0c0,0 0,0 0,0 0,1 0,1 0,1 1,0 1,1 1,1 1,0 1,0 1,0 0,1 1,1 1,1 0,0 0,0 0,0 1,1 2,1 2,1 1,1 1,1 1,1 0,0 1,0 1,0 0,0 1,0 1,0 0,0 1,1 1,1 0,0 1,0 1,0 1,0 1,0 2,0l26 0c-1,-1 -1,-2 -1,-3z"/>
   <g>
    <path class="fil1" d="M237 141l0 124 -27 0c-4,0 -7,-3 -7,-6l0 -111c0,-4 3,-7 7,-7l27 0zm173 100l0 0c0,5 -1,9 -2,12 -1,4 -3,6 -5,9 -2,2 -5,3 -8,4 -3,1 -6,2 -9,2 -5,0 -10,-1 -14,-2 -4,-2 -7,-4 -10,-8l-68 -79c-1,-1 -2,-1 -3,-1 -1,0 -2,0 -2,0 -1,1 -1,2 -1,3l0 78c0,3 -3,6 -7,6l-26 0 0 -98c0,-5 1,-10 2,-13 2,-4 4,-7 6,-9 3,-3 6,-4 9,-5 4,-1 8,-2 12,-2 6,0 11,1 15,3 4,2 8,5 12,9l60 73c1,1 1,1 2,1 0,1 1,1 2,1 1,0 2,-1 2,-4l0 -73c0,-4 3,-7 7,-7l26 0 0 100zm93 -100l0 0c10,0 19,1 27,4 7,3 14,7 19,12 7,6 12,13 15,21 4,8 5,16 5,25 0,8 -1,16 -4,23 -3,7 -7,14 -12,19 -5,6 -12,11 -21,15 -8,3 -17,5 -29,5l-67 0c-5,0 -8,-2 -8,-8l0 -108c0,-5 3,-8 8,-8l67 0zm-39 33l0 0c-2,0 -3,1 -3,2l0 54c0,2 1,3 3,3l39 0c6,0 11,-1 15,-3 4,-2 8,-4 10,-7 3,-3 5,-6 6,-9 1,-3 2,-7 2,-11 0,-4 -1,-8 -2,-11 -2,-4 -4,-7 -7,-10 -3,-2 -6,-4 -10,-6 -3,-1 -8,-2 -14,-2l-39 0zm185 91l0 0c-11,0 -21,-2 -29,-5 -9,-4 -16,-9 -21,-15 -5,-5 -9,-12 -12,-19 -3,-7 -4,-15 -4,-23 0,-9 1,-17 5,-25 4,-8 8,-15 15,-21 5,-5 12,-9 19,-12 8,-3 17,-4 27,-4l26 0c10,0 19,1 26,4 8,3 14,7 20,12 6,6 11,13 15,21 3,8 5,16 5,25 0,8 -2,16 -4,23 -3,7 -7,14 -12,19 -6,6 -13,11 -21,15 -8,3 -18,5 -29,5l-26 0zm0 -91l0 0c-6,0 -11,1 -14,2 -4,2 -7,4 -10,6 -3,3 -5,6 -7,10 -1,3 -2,7 -2,11 0,4 1,8 2,11 1,3 3,6 6,9 2,3 6,5 10,7 4,2 9,3 15,3l26 0c6,0 11,-1 15,-3 4,-2 7,-4 10,-7 2,-3 4,-6 6,-9 1,-3 2,-7 2,-11 0,-4 -1,-8 -3,-11 -2,-4 -4,-7 -7,-10 -2,-2 -5,-4 -9,-6 -4,-1 -9,-2 -14,-2l-26 0zm238 -33l0 0 0 26c0,4 -3,7 -7,7l-48 0 0 91 -33 0 0 -91 -55 0 0 -26c0,-4 3,-7 7,-7l136 0zm151 119l0 0c0,-2 0,-4 0,-6l0 -25c0,-7 -1,-13 -3,-17 -2,-3 -5,-7 -9,-9 5,-3 8,-7 9,-12 2,-4 3,-9 3,-14 0,-4 -1,-9 -3,-13 -1,-4 -4,-8 -7,-11 -3,-4 -8,-7 -13,-9 -5,-2 -11,-3 -19,-3l-88 0c-6,0 -8,3 -8,8l0 116 33 0 0 -44 0 0 0 -28 0 0 0 -18c0,-2 1,-3 3,-3l56 0c4,0 7,1 9,3 2,2 3,5 3,7 0,3 -1,5 -3,7 -1,1 -2,2 -3,3 -2,0 -4,1 -6,1l-49 0 0 28 48 0c5,0 8,1 10,3 3,1 4,4 4,8l0 25c0,3 0,6 0,8l34 0c0,-1 -1,-3 -1,-5zm78 5l0 0c-11,0 -21,-2 -29,-5 -8,-4 -15,-9 -21,-15 -5,-5 -9,-12 -12,-19 -3,-7 -4,-15 -4,-23 0,-9 2,-17 5,-25 4,-8 9,-15 15,-21 5,-5 12,-9 19,-12 8,-3 17,-4 27,-4l26 0c10,0 19,1 26,4 8,3 14,7 20,12 6,6 11,13 15,21 3,8 5,16 5,25 0,8 -1,16 -4,23 -3,7 -7,14 -12,19 -6,6 -13,11 -21,15 -8,3 -18,5 -29,5l-26 0zm0 -91l0 0c-6,0 -10,1 -14,2 -4,2 -7,4 -10,6 -3,3 -5,6 -6,10 -2,3 -3,7 -3,11 0,4 1,8 2,11 1,3 3,6 6,9 3,3 6,5 10,7 4,2 9,3 15,3l26 0c6,0 11,-1 15,-3 4,-2 7,-4 10,-7 2,-3 4,-6 6,-9 1,-3 2,-7 2,-11 0,-4 -1,-8 -3,-11 -1,-4 -4,-7 -6,-10 -3,-2 -6,-4 -10,-6 -4,-1 -8,-2 -14,-2l-26 0zm262 67l0 0c0,5 0,9 -2,12 -1,4 -3,6 -5,9 -2,2 -4,3 -7,4 -3,1 -6,2 -9,2 -5,0 -10,-1 -14,-2 -4,-2 -7,-4 -10,-8l-69 -79c0,-1 -1,-1 -2,-1 -1,0 -2,0 -3,0 0,1 -1,2 -1,3l0 78c0,3 -3,6 -6,6l-26 0 0 -98c0,-5 0,-10 2,-13 1,-4 3,-7 6,-9 2,-3 5,-4 9,-5 4,-1 7,-2 12,-2 5,0 10,1 14,3 5,2 8,5 12,9l61 73c1,1 1,1 2,1 0,1 1,1 1,1 2,0 3,-1 3,-4l0 -73c0,-4 3,-7 6,-7l26 0 0 100zm59 -100l0 0 0 124 -27 0c-4,0 -7,-3 -7,-6l0 -111c0,-4 3,-7 7,-7l27 0zm181 0l0 0c-1,1 -2,3 -3,4l-56 54 63 62c1,1 1,2 2,2 0,1 1,2 1,2l-48 0c0,-1 -1,-2 -3,-3l-39 -42 -42 42c0,0 -1,1 -2,1 0,1 -1,2 -1,2l-44 0c1,0 1,-1 2,-2 0,0 1,-1 1,-2l65 -62 -56 -54c-1,-1 -3,-3 -3,-4l46 0c1,1 2,3 3,4l33 33 35 -33c0,-1 1,-1 2,-2 0,-1 1,-1 1,-2l43 0z"/>
    <g>
     <path class="fil0" d="M73 2c-5,-3 -11,-3 -16,0l-57 30 0 54c0,6 4,12 10,15l55 29 55 -29c6,-3 10,-9 10,-15l0 -54 -57 -30z"/>
     <path class="fil1" d="M65 130l-55 -29c-6,-3 -10,-9 -10,-15l0 -54 65 33 0 65z"/>
     <path class="fil2" d="M65 130l55 -29c6,-3 10,-9 10,-15l0 -54 -65 33 0 65z"/>
     <path class="fil3" d="M130 32l-65 33 -65 -33 57 -30c5,-3 11,-3 16,0l57 30z"/>
     <g>
      <path class="fil0" d="M65 227l-55 -28c-6,-3 -10,-10 -10,-16l0 -39c0,-7 7,-12 13,-8l52 27 0 64z"/>
      <path class="fil4" style="mask:url(#id0)" d="M65 227l-55 -28c-6,-3 -10,-10 -10,-16l0 -39c0,-7 7,-12 13,-8l52 27 0 64z"/>
     </g>
     <g>
      <path class="fil0" d="M65 292l-52 -27c-6,-3 -13,2 -13,8l0 39c0,7 4,13 10,16l55 29 0 -65z"/>
      <path class="fil5" style="mask:url(#id2)" d="M65 292l-52 -27c-6,-3 -13,2 -13,8l0 39c0,7 4,13 10,16l55 29 0 -65z"/>
     </g>
     <g>
      <path class="fil0" d="M65 292l55 -28c6,-4 10,-10 10,-16l0 -40c0,-6 -7,-11 -13,-8l-52 27 0 65z"/>
      <path class="fil6" style="mask:url(#id4)" d="M65 292l55 -28c6,-4 10,-10 10,-16l0 -40c0,-6 -7,-11 -13,-8l-52 27 0 65z"/>
     </g>
     <g>
      <path class="fil0" d="M65 422l55 -29c6,-3 10,-9 10,-16l0 -39c0,-7 -7,-11 -13,-8l-52 27 0 65z"/>
      <path class="fil7" style="mask:url(#id6)" d="M65 422l55 -29c6,-3 10,-9 10,-16l0 -39c0,-7 -7,-11 -13,-8l-52 27 0 65z"/>
     </g>
    </g>
   </g>
   <path class="fil0" d="M369 298c0,0 0,0 0,0 -1,-1 -2,-1 -2,-1 -1,0 -1,0 -1,-1 0,0 -1,0 -1,0 0,0 -1,0 -1,0 0,0 -1,0 -1,-1 -1,0 -1,0 -1,0 -1,0 -1,0 -2,0l-26 0c1,1 1,2 1,3 1,1 1,1 1,2l42 94c4,7 8,12 14,16 5,4 12,6 21,6l0 0c8,0 15,-2 21,-6 5,-4 10,-9 13,-16l42 -94c1,-1 1,-1 1,-2 1,-1 1,-2 1,-3l-25 0c-1,0 -2,0 -2,0 -1,0 -1,0 -1,0 0,1 -1,1 -1,1 -1,0 -1,0 -1,0 -1,0 -1,0 -2,0 0,1 0,1 0,1 -1,0 -1,0 -2,1 0,0 0,0 0,0 0,0 -1,0 -1,1 -1,0 -1,0 -1,0 0,1 -1,1 -1,1 0,0 0,1 0,1 0,0 0,0 -1,0l0 0c0,1 -1,2 -1,3l-1 1 -4 8 -11 26 -18 43c-1,1 -1,2 -2,2 -1,1 -2,1 -3,1 -1,0 -2,0 -3,-1 -1,0 -2,-1 -2,-2l-18 -43 -12 -26 -3 -8 -1 -1c0,-1 -1,-2 -2,-3l0 0c0,0 0,0 0,0 0,0 0,-1 0,-1 -1,0 -1,0 -1,-1 -1,0 -1,0 -1,0 0,-1 -1,-1 -1,-1z"/>
   <path class="fil0" d="M813 295l-15 0 0 16 0 86 0 16 15 0c9,0 16,-7 16,-16l0 -86c0,-9 -7,-16 -16,-16z"/>
   <path class="fil0" d="M765 295c-9,0 -16,7 -16,16l0 60c0,2 -1,3 -2,3 -1,0 -1,0 -2,0 0,0 -1,0 -1,-1l-58 -69c-4,-4 -7,-7 -11,-9 -4,-2 -9,-3 -14,-3 -4,0 -8,1 -11,2 -4,1 -7,3 -9,5 -2,2 -4,5 -6,8 -1,4 -2,8 -2,13l0 72 0 10 0 11 15 0c9,0 16,-7 16,-16l0 -64c0,-1 1,-2 1,-2 1,-1 1,-1 2,-1 1,0 2,0 3,1l65 75c3,3 6,6 10,7 3,2 8,2 13,2 3,0 5,0 8,-1 3,-1 5,-3 7,-5 2,-2 4,-4 5,-7 1,-4 2,-8 2,-12l0 -74 0 -10 0 -11 -15 0z"/>
   <path class="fil0" d="M620 410c0,0 0,-1 -1,-2l-5 -13 -37 -81c-3,-7 -8,-13 -13,-16 -6,-4 -12,-6 -21,-6l0 0c-9,0 -16,2 -21,6 -6,3 -10,9 -13,16l-25 55 -12 26 -6 13c0,1 0,2 -1,2 0,1 0,2 0,3l25 0c1,0 1,0 2,0 0,0 1,0 1,0 0,0 1,-1 1,-1 0,0 1,0 1,0 0,0 1,0 1,0 0,0 1,0 1,-1 0,0 1,0 1,-1 1,0 1,0 1,0 0,0 1,0 1,-1 0,0 0,0 1,0 0,0 0,-1 1,-1 0,0 0,0 0,-1 0,0 0,0 0,0l0 0c1,-1 2,-2 2,-3l1 -1 3 -8 12 -26 18 -42c0,-2 1,-3 2,-3 1,-1 2,-1 3,-1 1,0 2,0 3,1 1,0 1,1 2,3l18 42 -9 0 0 0 -29 0 -1 3 -10 23 25 0 27 0 8 0 4 8 0 1c1,1 2,2 2,3l1 0c0,0 0,0 0,0 0,1 0,1 0,1 1,0 1,1 1,1 0,0 1,0 1,0 0,1 1,1 1,1 0,0 0,0 0,0 1,1 1,1 2,1 0,1 0,1 0,1 1,0 1,0 2,0 0,0 0,0 1,0 0,0 1,1 1,1 0,0 1,0 1,0 0,0 1,0 2,0l25 0c0,-1 0,-2 -1,-3z"/>
  </g>
 </g>
</svg>
