<?xml version="1.0" encoding="UTF-8"?>
<!-- Generator: Adobe Illustrator 27.3.1, SVG Export Plug-In . SVG Version: 6.00 Build 0)  -->
<svg xmlns="http://www.w3.org/2000/svg" xmlns:xlink="http://www.w3.org/1999/xlink" version="1.1" id="Layer_1" x="0px" y="0px" viewBox="0 0 50 30" style="enable-background:new 0 0 50 30;" xml:space="preserve">
<style type="text/css">
	.st0{fill:#B22234;}
	.st1{fill:#FFFFFF;}
	.st2{fill:#3C3B6E;}
</style>
<g>
	<rect x="-0.03" y="-0.01" class="st0" width="50.03" height="30"></rect>
	<g>
		<path d="M-0.03,3.45H50 M50,8.07H-0.03 M-0.03,12.68H50 M50,17.3H-0.03 M-0.03,21.91H50 M50,26.53H-0.03"></path>
		<path class="st1" d="M50,27.68H-0.03v-2.31H50V27.68z M50,23.07H-0.03v-2.31H50V23.07z M50,18.45H-0.03v-2.31H50V18.45z M50,13.84    H-0.03v-2.31H50V13.84z M50,9.22H-0.03V6.91H50V9.22z M50,4.61H-0.03V2.3H50V4.61z"></path>
	</g>
	<rect x="-0.03" y="-0.01" class="st2" width="22.8" height="16.15"></rect>
	<g>
		<g id="s18">
			<g id="s9">
				<g id="s5">
					<g id="s4">
						<path id="s" class="st1" d="M1.87,0.68l0.54,1.67L0.99,1.32h1.76L1.33,2.35L1.87,0.68z"></path>
						<g>
							<path id="s_00000053505130415847847600000015751588829784149915_" class="st1" d="M1.87,3.91l0.54,1.67L0.99,4.55h1.76         L1.33,5.58L1.87,3.91z"></path>
						</g>
						<g>
							<path id="s_00000170988823239840050590000002095277269771825583_" class="st1" d="M1.87,7.15l0.54,1.67L0.99,7.78h1.76         L1.33,8.82L1.87,7.15z"></path>
						</g>
						<g>
							<path id="s_00000096040444783561309300000006003033537479522998_" class="st1" d="M1.87,10.38l0.54,1.67l-1.42-1.03h1.76         l-1.42,1.03L1.87,10.38z"></path>
						</g>
					</g>
					<g>
						<path id="s_00000073685703780333134010000011194292262878023812_" class="st1" d="M1.87,13.61l0.54,1.67l-1.42-1.03h1.76        l-1.42,1.03L1.87,13.61z"></path>
					</g>
				</g>
				<g>
					<g id="s4_00000182499672692078034850000004758013879013300410_">
						<path id="s_00000103252508460062095280000011469454701624428191_" class="st1" d="M3.77,2.3l0.54,1.67L2.89,2.94h1.76        L3.23,3.97L3.77,2.3z"></path>
						<g>
							<path id="s_00000133513153459672055590000002922098294961153173_" class="st1" d="M3.77,5.53L4.31,7.2L2.89,6.17h1.76         L3.23,7.2L3.77,5.53z"></path>
						</g>
						<g>
							<path id="s_00000065795001948778859150000015121374380840953762_" class="st1" d="M3.77,8.76l0.54,1.67L2.89,9.4h1.76         l-1.42,1.03L3.77,8.76z"></path>
						</g>
						<g>
							<path id="s_00000123442162576355334440000000262018446077632399_" class="st1" d="M3.77,11.99l0.54,1.67l-1.42-1.03h1.76         l-1.42,1.03L3.77,11.99z"></path>
						</g>
					</g>
				</g>
			</g>
			<g>
				<g id="s9_00000013171115717926909280000003323619378869906861_">
					<g id="s5_00000054958726281533377040000002067523046375110823_">
						<g id="s4_00000142854487736553068840000002019180510208322442_">
							<path id="s_00000005233215500592132840000005768781252982147745_" class="st1" d="M5.67,0.68l0.54,1.67L4.79,1.32h1.76         L5.13,2.35L5.67,0.68z"></path>
							<g>
								<path id="s_00000037689896773169953630000012334919794881752250_" class="st1" d="M5.67,3.91l0.54,1.67L4.79,4.55h1.76          L5.13,5.58L5.67,3.91z"></path>
							</g>
							<g>
								<path id="s_00000001644137458547036360000007228324449536240301_" class="st1" d="M5.67,7.15l0.54,1.67L4.79,7.78h1.76          L5.13,8.82L5.67,7.15z"></path>
							</g>
							<g>
								<path id="s_00000019660408134716053910000002718785036280953749_" class="st1" d="M5.67,10.38l0.54,1.67l-1.42-1.03h1.76          l-1.42,1.03L5.67,10.38z"></path>
							</g>
						</g>
						<g>
							<path id="s_00000058590283025943907440000008492517163446332048_" class="st1" d="M5.67,13.61l0.54,1.67l-1.42-1.03h1.76         l-1.42,1.03L5.67,13.61z"></path>
						</g>
					</g>
					<g>
						<g id="s4_00000128460386142998667910000010357778759009324928_">
							<path id="s_00000183958043811522752050000004245635194405242769_" class="st1" d="M7.57,2.3l0.54,1.67L6.69,2.94h1.76         L7.03,3.97L7.57,2.3z"></path>
							<g>
								<path id="s_00000179631646350761536290000009516334408600041405_" class="st1" d="M7.57,5.53L8.11,7.2L6.69,6.17h1.76          L7.03,7.2L7.57,5.53z"></path>
							</g>
							<g>
								<path id="s_00000103227697630708026140000011819798303676796599_" class="st1" d="M7.57,8.76l0.54,1.67L6.69,9.4h1.76          l-1.42,1.03L7.57,8.76z"></path>
							</g>
							<g>
								<path id="s_00000135653025671516274500000016571763700652343196_" class="st1" d="M7.57,11.99l0.54,1.67l-1.42-1.03h1.76          l-1.42,1.03L7.57,11.99z"></path>
							</g>
						</g>
					</g>
				</g>
			</g>
		</g>
		<g>
			<g id="s18_00000095315111950510937260000015514233650668348834_">
				<g id="s9_00000045604874744703645040000017161716387058143386_">
					<g id="s5_00000021111728032369357620000000465707384094290081_">
						<g id="s4_00000051378428742289443620000010843731757269392794_">
							<path id="s_00000016033323634815680640000007426900918464780686_" class="st1" d="M9.47,0.68l0.54,1.67L8.59,1.32h1.76         L8.93,2.35L9.47,0.68z"></path>
							<g>
								<path id="s_00000064334737647223061820000012783971513932374914_" class="st1" d="M9.47,3.91l0.54,1.67L8.59,4.55h1.76          L8.93,5.58L9.47,3.91z"></path>
							</g>
							<g>
								<path id="s_00000000911351729762386010000008307963068161744776_" class="st1" d="M9.47,7.15l0.54,1.67L8.59,7.78h1.76          L8.93,8.82L9.47,7.15z"></path>
							</g>
							<g>
								<path id="s_00000181055099338490967360000009869597586116292752_" class="st1" d="M9.47,10.38l0.54,1.67l-1.42-1.03h1.76          l-1.42,1.03L9.47,10.38z"></path>
							</g>
						</g>
						<g>
							<path id="s_00000101804195960442870190000007225575281300613816_" class="st1" d="M9.47,13.61l0.54,1.67l-1.42-1.03h1.76         l-1.42,1.03L9.47,13.61z"></path>
						</g>
					</g>
					<g>
						<g id="s4_00000176014241335175905790000007292644274715245728_">
							<path id="s_00000044879138549930204900000004058542040073933196_" class="st1" d="M11.37,2.3l0.54,1.67l-1.42-1.03h1.76         l-1.42,1.03L11.37,2.3z"></path>
							<g>
								<path id="s_00000154419504986755186780000006891576023949305240_" class="st1" d="M11.37,5.53l0.54,1.67l-1.42-1.03h1.76          L10.83,7.2L11.37,5.53z"></path>
							</g>
							<g>
								<path id="s_00000183236813041299394770000005318438129106976697_" class="st1" d="M11.37,8.76l0.54,1.67L10.49,9.4h1.76          l-1.42,1.03L11.37,8.76z"></path>
							</g>
							<g>
								<path id="s_00000123405566296827536500000007007123649862961085_" class="st1" d="M11.37,11.99l0.54,1.67l-1.42-1.03h1.76          l-1.42,1.03L11.37,11.99z"></path>
							</g>
						</g>
					</g>
				</g>
				<g>
					<g id="s9_00000057145775928331349020000005330492345397318795_">
						<g id="s5_00000170988997764590233880000012783638333559786377_">
							<g id="s4_00000181049523943718281660000014144953233122363016_">
								<path id="s_00000054266901552040372070000000457765237220622211_" class="st1" d="M13.27,0.68l0.54,1.67l-1.42-1.03h1.76          l-1.42,1.03L13.27,0.68z"></path>
								<g>
									<path id="s_00000181046872014569964870000013535413007375489446_" class="st1" d="M13.27,3.91l0.54,1.67l-1.42-1.03h1.76           l-1.42,1.03L13.27,3.91z"></path>
								</g>
								<g>
									<path id="s_00000149366053382245176480000010459493983653532837_" class="st1" d="M13.27,7.15l0.54,1.67l-1.42-1.03h1.76           l-1.42,1.03L13.27,7.15z"></path>
								</g>
								<g>
									<path id="s_00000109718998881759583670000007601716157209860762_" class="st1" d="M13.27,10.38l0.54,1.67l-1.42-1.03h1.76           l-1.42,1.03L13.27,10.38z"></path>
								</g>
							</g>
							<g>
								<path id="s_00000035504756038435763050000017758749923067880345_" class="st1" d="M13.27,13.61l0.54,1.67l-1.42-1.03h1.76          l-1.42,1.03L13.27,13.61z"></path>
							</g>
						</g>
						<g>
							<g id="s4_00000064338403247537703510000000733241964337549479_">
								<path id="s_00000117672029252318289100000016676056622924892819_" class="st1" d="M15.17,2.3l0.54,1.67l-1.42-1.03h1.76          l-1.42,1.03L15.17,2.3z"></path>
								<g>
									<path id="s_00000123407395939831256410000001458563316517932455_" class="st1" d="M15.17,5.53l0.54,1.67l-1.42-1.03h1.76           L14.63,7.2L15.17,5.53z"></path>
								</g>
								<g>
									<path id="s_00000169558044752497395670000007439402989015531195_" class="st1" d="M15.17,8.76l0.54,1.67L14.29,9.4h1.76           l-1.42,1.03L15.17,8.76z"></path>
								</g>
								<g>
									<path id="s_00000170262867247023773040000017438173401142820785_" class="st1" d="M15.17,11.99l0.54,1.67l-1.42-1.03h1.76           l-1.42,1.03L15.17,11.99z"></path>
								</g>
							</g>
						</g>
					</g>
				</g>
			</g>
		</g>
		<g>
			<g id="s9_00000097481654032739020060000006178878686782428312_">
				<g id="s5_00000134247446943290085530000016798217700458504618_">
					<g id="s4_00000043443732576002645300000014927649446860610740_">
						<path id="s_00000093142337833404168270000007471734575329442968_" class="st1" d="M17.07,0.68l0.54,1.67l-1.42-1.03h1.76        l-1.42,1.03L17.07,0.68z"></path>
						<g>
							<path id="s_00000039856456489096027460000014457101304999352234_" class="st1" d="M17.07,3.91l0.54,1.67l-1.42-1.03h1.76         l-1.42,1.03L17.07,3.91z"></path>
						</g>
						<g>
							<path id="s_00000004526812434943969520000013006154694393355949_" class="st1" d="M17.07,7.15l0.54,1.67l-1.42-1.03h1.76         l-1.42,1.03L17.07,7.15z"></path>
						</g>
						<g>
							<path id="s_00000079480655199657721540000015930947826092477119_" class="st1" d="M17.07,10.38l0.54,1.67l-1.42-1.03h1.76         l-1.42,1.03L17.07,10.38z"></path>
						</g>
					</g>
					<g>
						<path id="s_00000006690320213936729650000005792718047508712619_" class="st1" d="M17.07,13.61l0.54,1.67l-1.42-1.03h1.76        l-1.42,1.03L17.07,13.61z"></path>
					</g>
				</g>
				<g>
					<g id="s4_00000152234966659841399710000018238463768650330552_">
						<path id="s_00000084512554090980823720000009384588636224659617_" class="st1" d="M18.97,2.3l0.54,1.67l-1.42-1.03h1.76        l-1.42,1.03L18.97,2.3z"></path>
						<g>
							<path id="s_00000160161156212196555760000013545135794879977618_" class="st1" d="M18.97,5.53l0.54,1.67l-1.42-1.03h1.76         L18.43,7.2L18.97,5.53z"></path>
						</g>
						<g>
							<path id="s_00000089557210911470837470000018107553497416173212_" class="st1" d="M18.97,8.76l0.54,1.67L18.09,9.4h1.76         l-1.42,1.03L18.97,8.76z"></path>
						</g>
						<g>
							<path id="s_00000169528345179161268580000003934503844858928812_" class="st1" d="M18.97,11.99l0.54,1.67l-1.42-1.03h1.76         l-1.42,1.03L18.97,11.99z"></path>
						</g>
					</g>
				</g>
			</g>
		</g>
		<g>
			<g id="s5_00000127748413046988494200000008592076607510674054_">
				<g id="s4_00000179604394890926429900000006107590116384258210_">
					<path id="s_00000046328380512670655900000018248651823828892841_" class="st1" d="M20.87,0.68l0.54,1.67l-1.42-1.03h1.76       l-1.42,1.03L20.87,0.68z"></path>
					<g>
						<path id="s_00000071530951089795177460000007677807084347631259_" class="st1" d="M20.87,3.91l0.54,1.67l-1.42-1.03h1.76        l-1.42,1.03L20.87,3.91z"></path>
					</g>
					<g>
						<path id="s_00000178912797754509766120000001437697534132544172_" class="st1" d="M20.87,7.15l0.54,1.67l-1.42-1.03h1.76        l-1.42,1.03L20.87,7.15z"></path>
					</g>
					<g>
						<path id="s_00000134961857906943565900000010985254085538000542_" class="st1" d="M20.87,10.38l0.54,1.67l-1.42-1.03h1.76        l-1.42,1.03L20.87,10.38z"></path>
					</g>
				</g>
				<g>
					<path id="s_00000127751273611344870200000014009954312163184831_" class="st1" d="M20.87,13.61l0.54,1.67l-1.42-1.03h1.76       l-1.42,1.03L20.87,13.61z"></path>
				</g>
			</g>
		</g>
	</g>
</g>
</svg>
