<?xml version="1.0" encoding="utf-8"?>
<!-- Generator: Adobe Illustrator 15.0.0, SVG Export Plug-In . SVG Version: 6.00 Build 0)  -->
<!DOCTYPE svg PUBLIC "-//W3C//DTD SVG 1.1//EN" "http://www.w3.org/Graphics/SVG/1.1/DTD/svg11.dtd">
<svg version="1.1" id="Layer_1" xmlns="http://www.w3.org/2000/svg" xmlns:xlink="http://www.w3.org/1999/xlink" x="0px" y="0px"
	 width="20px" height="20px" viewBox="0 0 20 20" enable-background="new 0 0 20 20" xml:space="preserve">
<g>
	<path fill="#FFFFFF" d="M9.058,14.228c-0.239,0-0.47-0.089-0.644-0.254l-5.22-4.896L4.48,7.708l4.482,4.204l8.742-10.838
		l1.462,1.178L9.788,13.878c-0.163,0.203-0.405,0.33-0.667,0.349C9.1,14.227,9.08,14.228,9.058,14.228z"/>
	<path fill="#FFFFFF" d="M16.864,7.455c0.27,0.8,0.423,1.655,0.423,2.545c0,4.404-3.583,7.986-7.986,7.986S1.314,14.404,1.314,10
		c0-4.404,3.583-7.986,7.986-7.986c1.75,0,3.365,0.573,4.683,1.531l0.59-0.73c-1.479-1.089-3.299-1.74-5.272-1.74
		c-4.922,0-8.926,4.004-8.926,8.926c0,4.922,4.004,8.926,8.926,8.926s8.926-4.004,8.926-8.926c0-1.203-0.242-2.349-0.676-3.397
		L16.864,7.455z"/>
</g>
</svg>
